<?xml version="1.0" encoding="UTF-8"?>
<svg xmlns="http://www.w3.org/2000/svg" version="1.1" viewBox="0 0 367.42 367.44">
  <defs>
    <style>
      .cls-1 {
        fill: #00c0e3;
      }
    </style>
  </defs>
  <!-- Generator: Adobe Illustrator 28.7.1, SVG Export Plug-In . SVG Version: 1.2.0 Build 142)  -->
  <g>
    <g id="Layer_1">
      <g>
        <path class="cls-1" d="M289.36,114.89c-2.22.26-3.7,2.16-3.38,4.32.32,2.13,2.17,3.55,4.26,3.26,2.14-.3,3.58-2.14,3.31-4.22-.28-2.14-2.1-3.61-4.18-3.36Z"/>
        <path class="cls-1" d="M286.42,100.95c-1.98.32-3.37,2.34-2.97,4.31.39,1.92,2.32,3.22,4.24,2.85,1.92-.36,3.24-2.28,2.9-4.21-.34-1.92-2.24-3.27-4.18-2.95Z"/>
        <path class="cls-1" d="M291.72,129.22c-2.12.47-3.56,2.69-3.1,4.79.47,2.12,2.69,3.56,4.79,3.1,2.12-.47,3.56-2.69,3.1-4.79-.47-2.12-2.69-3.56-4.79-3.1Z"/>
        <path class="cls-1" d="M292.67,211.67c2.3-.39,3.96-2.74,3.56-5.07-.39-2.3-2.74-3.96-5.07-3.56-2.3.39-3.96,2.74-3.56,5.07.39,2.3,2.74,3.96,5.07,3.56Z"/>
        <path class="cls-1" d="M294.52,143.27c-2.15.42-3.63,2.53-3.27,4.69.36,2.23,2.53,3.78,4.76,3.39,2.23-.39,3.75-2.57,3.34-4.79-.41-2.22-2.61-3.72-4.83-3.29Z"/>
        <path class="cls-1" d="M260.22,119.45c-2.7.52-4.38,2.99-3.86,5.69.52,2.7,2.99,4.38,5.69,3.86,2.7-.52,4.38-2.99,3.86-5.69-.52-2.7-2.99-4.38-5.69-3.86Z"/>
        <path class="cls-1" d="M269.12,89.45c-2.11.39-3.45,2.29-3.08,4.39.38,2.18,2.36,3.54,4.52,3.1,2.09-.42,3.39-2.36,2.98-4.45-.4-2.1-2.32-3.42-4.42-3.03Z"/>
        <path class="cls-1" d="M271.99,103.25c-2.28.32-3.87,2.38-3.55,4.64.32,2.28,2.38,3.87,4.64,3.55,2.28-.32,3.87-2.38,3.55-4.64-.32-2.28-2.38-3.87-4.64-3.55Z"/>
        <path class="cls-1" d="M266.39,75.32c-1.93.34-3.15,2.09-2.81,4,.34,1.93,2.09,3.15,4,2.81,1.93-.34,3.15-2.09,2.81-4-.34-1.93-2.09-3.15-4-2.81Z"/>
        <path class="cls-1" d="M277.26,131.51c-2.53.47-4.1,2.76-3.63,5.28.47,2.53,2.76,4.1,5.28,3.63,2.53-.47,4.1-2.76,3.63-5.28-.47-2.53-2.76-4.1-5.28-3.63Z"/>
        <path class="cls-1" d="M290,197.67c2.53-.47,4.1-2.76,3.63-5.28-.47-2.53-2.76-4.1-5.28-3.63-2.53.47-4.1,2.76-3.63,5.28.47,2.53,2.76,4.1,5.28,3.63Z"/>
        <path class="cls-1" d="M198.55,261.04c3.08-.6,5.18-3.7,4.58-6.78-.6-3.08-3.7-5.18-6.78-4.58-3.08.6-5.18,3.7-4.58,6.78.6,3.08,3.7,5.18,6.78,4.58Z"/>
        <path class="cls-1" d="M283.8,87.09c-1.78.24-3.12,2.08-2.82,3.87.29,1.72,2.03,2.99,3.78,2.75,1.78-.24,3.12-2.08,2.82-3.87-.29-1.72-2.03-2.99-3.78-2.75Z"/>
        <path class="cls-1" d="M227.17,255.23c3.04-.61,4.93-3.46,4.32-6.52-.61-3.04-3.46-4.93-6.52-4.32-3.04.61-4.93,3.46-4.32,6.52.61,3.04,3.46,4.93,6.52,4.32Z"/>
        <path class="cls-1" d="M235.83,224.49c3.28-.63,5.49-3.83,4.91-7.12-.59-3.35-3.88-5.61-7.22-4.97-3.28.63-5.49,3.83-4.91,7.12.59,3.35,3.88,5.61,7.22,4.97Z"/>
        <path class="cls-1" d="M241.23,252.32c2.87-.55,4.79-3.39,4.24-6.26-.55-2.87-3.39-4.79-6.26-4.24-2.87.55-4.79,3.39-4.24,6.26.55,2.87,3.39,4.79,6.26,4.24Z"/>
        <path class="cls-1" d="M238.56,238.26c3.08-.63,5.15-3.75,4.53-6.82-.63-3.08-3.75-5.16-6.82-4.53-3.08.63-5.16,3.75-4.53,6.82.63,3.08,3.75,5.16,6.82,4.53Z"/>
        <path class="cls-1" d="M210.36,244.14c3.37-.68,5.52-3.91,4.84-7.3-.68-3.37-3.91-5.52-7.3-4.84-3.37.68-5.52,3.91-4.84,7.3.68,3.37,3.91,5.52,7.3,4.84Z"/>
        <path class="cls-1" d="M212.96,258.2c3.02-.54,5.12-3.53,4.64-6.6-.48-3.07-3.6-5.26-6.7-4.71-3.02.54-5.12,3.53-4.64,6.6.48,3.07,3.6,5.26,6.7,4.71Z"/>
        <path class="cls-1" d="M224.27,241.3c3.25-.52,5.54-3.77,4.95-7.06-.57-3.2-3.71-5.4-6.96-4.88-3.25.52-5.54,3.77-4.95,7.06.57,3.2,3.71,5.4,6.96,4.88Z"/>
        <path class="cls-1" d="M281.38,228.72c2.51-.48,4.09-2.79,3.63-5.3-.46-2.51-2.76-4.12-5.27-3.68-2.52.44-4.15,2.73-3.73,5.23.44,2.59,2.79,4.24,5.37,3.74Z"/>
        <path class="cls-1" d="M275.96,200.95c2.66-.49,4.52-3.15,4.09-5.84-.44-2.72-3.21-4.65-5.94-4.15-2.66.49-4.52,3.15-4.09,5.84.44,2.72,3.21,4.65,5.94,4.15Z"/>
        <path class="cls-1" d="M266.94,232.02c2.66-.47,4.53-3.14,4.08-5.84-.45-2.72-3.25-4.64-5.97-4.1-2.66.53-4.48,3.23-3.98,5.9.5,2.66,3.19,4.51,5.87,4.03Z"/>
        <path class="cls-1" d="M250.29,221.3c3.08-.63,5.16-3.78,4.51-6.84-.66-3.07-3.84-5.14-6.87-4.46-3.01.67-5.02,3.72-4.44,6.74.59,3.07,3.74,5.18,6.8,4.56Z"/>
        <path class="cls-1" d="M278.52,214.86c2.71-.45,4.48-2.93,4-5.6-.47-2.63-2.9-4.36-5.5-3.93-2.71.45-4.48,2.93-4,5.6.47,2.63,2.9,4.36,5.5,3.93Z"/>
        <path class="cls-1" d="M252.64,235.17c2.89-.37,5.03-3.22,4.63-6.18-.4-2.9-3.27-5.01-6.21-4.58-2.83.42-4.89,3.17-4.55,6.08.34,2.89,3.18,5.05,6.14,4.67Z"/>
        <path class="cls-1" d="M264.18,218.18c2.86-.46,4.86-3.26,4.39-6.16-.46-2.86-3.26-4.86-6.16-4.39-2.86.46-4.86,3.26-4.39,6.16.46,2.86,3.26,4.86,6.16,4.39Z"/>
        <path class="cls-1" d="M261.46,204.21c3.08-.54,5.07-3.33,4.55-6.36-.54-3.08-3.33-5.07-6.36-4.55-3.08.54-5.07,3.33-4.55,6.36.54,3.08,3.33,5.07,6.36,4.55Z"/>
        <path class="cls-1" d="M274.56,117.14c-2.31.37-3.98,2.69-3.64,5.03.35,2.37,2.78,4.1,5.16,3.66,2.3-.42,3.94-2.77,3.54-5.1-.39-2.3-2.73-3.96-5.06-3.59Z"/>
        <path class="cls-1" d="M218.42,285.78c2.49-.51,4.18-3.07,3.67-5.54-.51-2.49-3.07-4.18-5.54-3.67-2.49.51-4.18,3.07-3.67,5.54.51,2.49,3.07,4.18,5.54,3.67Z"/>
        <path class="cls-1" d="M215.64,271.79c2.87-.55,4.68-3.19,4.13-6.06-.54-2.87-3.19-4.68-6.06-4.13-2.87.55-4.68,3.19-4.13,6.06.55,2.87,3.19,4.68,6.06,4.13Z"/>
        <path class="cls-1" d="M220.9,299.37c2.23-.37,3.76-2.55,3.37-4.78-.4-2.23-2.59-3.74-4.81-3.32-2.15.41-3.64,2.51-3.3,4.68.35,2.23,2.51,3.79,4.74,3.42Z"/>
        <path class="cls-1" d="M204.01,288.6c2.48-.56,4.15-3.12,3.62-5.59-.53-2.48-3.08-4.17-5.55-3.67-2.48.5-4.19,3.03-3.72,5.52.48,2.55,3.14,4.31,5.65,3.74Z"/>
        <path class="cls-1" d="M201.27,274.62c2.86-.59,4.63-3.27,4.06-6.15-.57-2.88-3.24-4.66-6.12-4.11-2.88.56-4.69,3.2-4.16,6.08.55,2.96,3.27,4.78,6.22,4.18Z"/>
        <path class="cls-1" d="M229.59,269c2.66-.39,4.61-2.97,4.29-5.69-.32-2.73-2.97-4.76-5.75-4.41-2.73.34-4.74,3.01-4.36,5.79.37,2.73,3.06,4.72,5.83,4.32Z"/>
        <path class="cls-1" d="M206.46,302.2c2.36-.42,3.82-2.58,3.34-4.93-.46-2.26-2.58-3.67-4.86-3.23-2.27.45-3.7,2.55-3.28,4.83.43,2.28,2.52,3.73,4.79,3.33Z"/>
        <path class="cls-1" d="M235.18,296.52c2.12-.45,3.57-2.66,3.13-4.77-.45-2.12-2.66-3.57-4.77-3.13-2.12.45-3.57,2.66-3.13,4.77.45,2.12,2.66,3.57,4.77,3.13Z"/>
        <path class="cls-1" d="M255.68,249.22c2.66-.53,4.49-3.23,3.98-5.9-.5-2.66-3.19-4.51-5.87-4.03-2.66.47-4.53,3.14-4.08,5.83.45,2.72,3.25,4.64,5.97,4.1Z"/>
        <path class="cls-1" d="M249.29,293.56c2.08-.43,3.37-2.38,2.95-4.47-.41-2.09-2.34-3.4-4.44-3-2.1.4-3.43,2.31-3.05,4.41.39,2.18,2.37,3.52,4.54,3.07Z"/>
        <path class="cls-1" d="M258.31,262.88c2.51-.49,4.08-2.8,3.62-5.31-.47-2.51-2.77-4.11-5.27-3.67-2.58.46-4.21,2.84-3.69,5.41.51,2.5,2.83,4.06,5.34,3.57Z"/>
        <path class="cls-1" d="M246.52,280c2.3-.4,3.95-2.75,3.55-5.07-.4-2.3-2.75-3.95-5.07-3.55-2.3.4-3.95,2.75-3.55,5.07.4,2.3,2.75,3.95,5.07,3.55Z"/>
        <path class="cls-1" d="M192.44,304.9c2.25-.46,3.67-2.63,3.2-4.88-.46-2.25-2.63-3.67-4.88-3.2-2.25.46-3.67,2.63-3.2,4.88.46,2.25,2.63,3.67,4.88,3.2Z"/>
        <path class="cls-1" d="M243.7,266c2.73-.45,4.5-2.89,4.04-5.57-.46-2.72-2.92-4.47-5.61-3.99-2.65.47-4.38,2.86-3.97,5.47.43,2.74,2.85,4.53,5.53,4.09Z"/>
        <path class="cls-1" d="M232.45,282.89c2.53-.47,4.1-2.76,3.63-5.28-.47-2.53-2.76-4.1-5.28-3.63-2.53.47-4.1,2.76-3.63,5.28.47,2.53,2.76,4.1,5.28,3.63Z"/>
        <path class="cls-1" d="M237.51,80.01c-2.25.46-3.8,2.71-3.43,4.99.38,2.32,2.72,3.96,5.05,3.54,2.32-.41,3.94-2.76,3.49-5.09-.44-2.32-2.81-3.91-5.12-3.44Z"/>
        <path class="cls-1" d="M257.56,105.56c-2.55.47-4.2,2.9-3.69,5.44.52,2.55,2.97,4.15,5.51,3.59,2.47-.55,4.02-2.93,3.52-5.41-.5-2.48-2.85-4.07-5.34-3.62Z"/>
        <path class="cls-1" d="M240.27,94.08c-2.49.48-4.21,2.98-3.78,5.49.44,2.55,3.04,4.34,5.59,3.85,2.49-.48,4.21-2.98,3.78-5.49-.44-2.55-3.04-4.34-5.59-3.85Z"/>
        <path class="cls-1" d="M235.02,66.33c-2.2.37-3.58,2.31-3.18,4.48.39,2.12,2.28,3.46,4.38,3.11,2.2-.37,3.58-2.31,3.18-4.48-.39-2.12-2.28-3.46-4.38-3.11Z"/>
        <path class="cls-1" d="M189.71,291.34c2.49-.45,4.22-2.98,3.76-5.48-.45-2.49-2.98-4.22-5.48-3.76-2.48.45-4.22,2.98-3.76,5.48.45,2.49,2.98,4.22,5.48,3.76Z"/>
        <path class="cls-1" d="M254.97,91.7c-2.29.36-3.88,2.52-3.56,4.84.32,2.36,2.56,4.02,4.94,3.64,2.29-.36,3.88-2.52,3.56-4.84-.32-2.36-2.56-4.02-4.94-3.64Z"/>
        <path class="cls-1" d="M243.08,107.85c-2.73.44-4.66,3.17-4.19,5.92.45,2.66,3.08,4.55,5.78,4.17,2.73-.38,4.71-3.08,4.29-5.84-.41-2.73-3.13-4.69-5.88-4.24Z"/>
        <path class="cls-1" d="M252.1,77.66c-2.1.41-3.44,2.32-3.09,4.42.36,2.19,2.32,3.59,4.49,3.21,2.18-.38,3.56-2.35,3.16-4.52-.4-2.18-2.39-3.53-4.56-3.11Z"/>
        <path class="cls-1" d="M226.07,96.48c-2.73.52-4.6,3.29-4.05,6.01.55,2.73,3.34,4.57,6.05,4,2.72-.58,4.55-3.38,3.95-6.08-.59-2.66-3.28-4.44-5.95-3.93Z"/>
        <path class="cls-1" d="M223.28,82.45c-2.45.51-4.07,2.91-3.64,5.38.44,2.51,2.93,4.23,5.45,3.76,2.51-.47,4.21-2.97,3.71-5.48-.5-2.51-3.02-4.18-5.52-3.66Z"/>
        <path class="cls-1" d="M206.4,71.26c-.39.05-.75.18-1.09.33h0s-.08.03-.12.05c-.03.01-.06.02-.09.04h0c-1.69.83-2.77,2.65-2.51,4.6.15,1.11.72,2.06,1.51,2.74h0s0,0,.01,0c.06.05.11.11.18.16v-.02c.92.71,2.09,1.09,3.31.92,2.42-.33,4.14-2.6,3.81-5.02-.33-2.42-2.59-4.14-5.01-3.81Z"/>
        <path class="cls-1" d="M186.97,277.34c2.88-.53,4.71-3.16,4.19-6.02-.53-2.88-3.16-4.71-6.02-4.19-2.88.53-4.71,3.16-4.19,6.02.53,2.88,3.16,4.71,6.02,4.19Z"/>
        <path class="cls-1" d="M208.82,85.01c-2.7.52-4.39,2.99-3.88,5.69.52,2.78,3.06,4.48,5.83,3.9,2.69-.56,4.33-3.06,3.78-5.76-.54-2.69-3.02-4.36-5.73-3.83Z"/>
        <path class="cls-1" d="M220.66,68.81c-2.27.46-3.68,2.57-3.24,4.85.44,2.28,2.54,3.71,4.81,3.29,2.35-.43,3.8-2.6,3.31-4.95-.47-2.26-2.6-3.65-4.88-3.19Z"/>
        <path class="cls-1" d="M211.69,98.95c-2.89.44-4.97,3.37-4.47,6.29.49,2.84,3.3,4.84,6.19,4.4,2.89-.44,4.97-3.37,4.47-6.29-.49-2.84-3.3-4.84-6.19-4.4Z"/>
        <path class="cls-1" d="M345.43,93.3c-.75-.4-1.24-.88-1.61-.8-.39.09-.66.7-.99,1.08.43.33.83.87,1.29.92.31.03.7-.62,1.3-1.21Z"/>
        <path class="cls-1" d="M282.83,159.93c-2.54.42-4.35,3.05-3.84,5.59.5,2.48,3.03,4.19,5.52,3.72,2.48-.47,4.22-2.99,3.77-5.49-.44-2.48-2.94-4.24-5.45-3.82Z"/>
        <path class="cls-1" d="M306.07,127.05c-1.89.36-3.11,2.17-2.73,4.05.38,1.88,2.2,3.08,4.09,2.68,1.88-.4,3.05-2.24,2.63-4.12-.41-1.8-2.17-2.96-3.99-2.61Z"/>
        <path class="cls-1" d="M297.31,157.74c-2.25.44-3.69,2.59-3.25,4.85.44,2.25,2.59,3.69,4.85,3.25,2.25-.44,3.69-2.59,3.25-4.85-.44-2.25-2.59-3.69-4.85-3.25Z"/>
        <path class="cls-1" d="M303.27,112.71c-1.74.34-2.92,2.08-2.61,3.82.33,1.81,2.17,3.03,3.96,2.63,1.73-.39,2.87-2.16,2.51-3.89-.37-1.74-2.12-2.9-3.86-2.56Z"/>
        <path class="cls-1" d="M183.43,233.02c.04-.06.08-.13.12-.19.11-.19.21-.39.31-.59,0-.02.02-.04.03-.05h0c.51-1.15.71-2.44.5-3.75h0c-.02-.1-.03-.21-.05-.31-.06-.31-.15-.6-.26-.89h0c-1.09-3.07-4.29-4.98-7.57-4.36-3.65.69-6.06,4.29-5.31,7.93.74,3.59,4.23,5.92,7.83,5.24,1.79-.34,3.27-1.39,4.24-2.8v.03c.06-.09.11-.18.16-.27Z"/>
        <path class="cls-1" d="M265.76,147.75c-2.88.53-4.71,3.16-4.19,6.02.53,2.88,3.16,4.71,6.02,4.19,2.88-.53,4.71-3.16,4.19-6.02-.53-2.88-3.16-4.71-6.02-4.19Z"/>
        <path class="cls-1" d="M304.87,175.06c-.46-2.15-2.6-3.57-4.76-3.18-2.23.41-3.73,2.6-3.3,4.82.43,2.22,2.64,3.7,4.86,3.25,2.22-.45,3.67-2.68,3.2-4.89Z"/>
        <path class="cls-1" d="M268.53,162.21c-2.9.55-4.71,3.19-4.16,6.07.55,2.89,3.19,4.71,6.07,4.16,2.89-.55,4.7-3.19,4.16-6.07-.55-2.89-3.19-4.71-6.07-4.16Z"/>
        <path class="cls-1" d="M285.52,174.11c-2.48.45-4.22,2.98-3.77,5.47.45,2.49,2.98,4.22,5.47,3.77,2.48-.45,4.22-2.98,3.77-5.47-.45-2.49-2.98-4.22-5.47-3.77Z"/>
        <path class="cls-1" d="M279.89,145.51c-2.49.51-4.18,3.07-3.67,5.54.51,2.49,3.07,4.18,5.54,3.67,2.49-.51,4.18-3.07,3.67-5.54-.51-2.49-3.07-4.18-5.54-3.67Z"/>
        <path class="cls-1" d="M271.29,176.39c-2.8.52-4.63,3.11-4.17,5.89.48,2.89,3.11,4.78,5.96,4.29,2.88-.5,4.75-3.14,4.24-5.99-.52-2.88-3.17-4.72-6.03-4.19Z"/>
        <path class="cls-1" d="M345.75,167.08c-.38-1.28-1.3-1.78-2.52-1.63-1.27.28-2.01,1.39-1.8,2.58.22,1.25,1.42,2.04,2.66,1.77,1.24-.27,2.02-1.5,1.66-2.72Z"/>
        <path class="cls-1" d="M346.8,108.91c.52-.07.96-.79,1.79-1.55-.98-.5-1.65-1.11-2.03-.97-.52.19-1.07.94-1.12,1.49-.03.32.93,1.07,1.36,1.02Z"/>
        <path class="cls-1" d="M346.84,184.21c1.22-.25,1.93-1.34,1.66-2.55-.27-1.2-1.39-1.92-2.59-1.6-1.24.33-1.78,1.18-1.59,2.45.19,1.23,1.29,1.96,2.51,1.71Z"/>
        <path class="cls-1" d="M353.51,150.88c.19.61,1.1,1.39,1.71,1.38.57,0,1.13-.92,1.7-1.43-.03-.23-.07-.46-.1-.7-.69-.33-1.44-.99-2.05-.88-.54.1-1.37,1.21-1.25,1.62Z"/>
        <path class="cls-1" d="M349.89,124.13c.46-1.06,1.02-1.75.88-2.21-.15-.5-.97-.79-1.5-1.17-.39.57-1.06,1.14-1.07,1.72,0,.43.84.87,1.69,1.66Z"/>
        <path class="cls-1" d="M260.99,276.93c2.22-.41,3.72-2.61,3.29-4.83-.43-2.22-2.65-3.7-4.86-3.24-2.15.44-3.6,2.56-3.23,4.73.39,2.23,2.57,3.75,4.79,3.34Z"/>
        <path class="cls-1" d="M195.84,247c3.41-.66,5.57-3.83,4.95-7.23-.64-3.5-3.85-5.69-7.33-5.01-3.41.66-5.57,3.83-4.95,7.23.64,3.5,3.85,5.69,7.33,5.01Z"/>
        <path class="cls-1" d="M308.71,141.12c-1.92.4-3.09,2.16-2.73,4.09.38,2.01,2.19,3.22,4.19,2.8,1.92-.4,3.09-2.16,2.73-4.09-.38-2.01-2.19-3.22-4.19-2.8Z"/>
        <path class="cls-1" d="M338.6,153.89c.21,1.21,1.46,2.08,2.67,1.88,1.21-.21,2.08-1.46,1.88-2.67-.21-1.21-1.46-2.08-2.67-1.88-1.21.21-2.08,1.46-1.88,2.67Z"/>
        <path class="cls-1" d="M311.53,173.82c.37,2.01,2.18,3.23,4.18,2.82,1.92-.39,3.11-2.15,2.75-4.08-.37-2.01-2.18-3.23-4.18-2.82-1.92.39-3.11,2.15-2.75,4.08Z"/>
        <path class="cls-1" d="M304.4,194.37c2.13-.4,3.61-2.58,3.21-4.71-.4-2.13-2.58-3.61-4.71-3.21-2.13.4-3.61,2.58-3.21,4.71.4,2.13,2.58,3.61,4.71,3.21Z"/>
        <path class="cls-1" d="M311.71,155.51c-1.97.3-3.3,2.11-3,4.07.3,1.97,2.11,3.3,4.07,3,1.97-.3,3.3-2.11,3-4.07-.3-1.97-2.11-3.3-4.07-3Z"/>
        <path class="cls-1" d="M169.77,337.42s.05-.02.08-.04h0c.99-.58,1.58-1.75,1.35-2.9-.11-.54-.4-1-.78-1.36v-.02s-.06-.04-.09-.07c-.03-.03-.07-.05-.1-.08-.62-.5-1.43-.75-2.24-.58-1.44.3-2.42,1.78-2.12,3.21.3,1.44,1.78,2.42,3.21,2.12.18-.04.35-.1.51-.18.07-.03.13-.06.19-.09Z"/>
        <path class="cls-1" d="M211.07,28.38v-.04c-.04.07-.07.14-.11.21-.01.02-.03.04-.05.07v.02c-.23.46-.31.99-.21,1.56h0s0,.06.01.09c.02.08.05.16.07.23h0c.38,1.24,1.55,1.94,2.87,1.66,1.39-.3,2.19-1.54,1.89-2.94-.3-1.39-1.54-2.19-2.94-1.89-.68.15-1.2.53-1.53,1.03Z"/>
        <path class="cls-1" d="M352.56,137.73c.37-.6,1.07-1.24,1-1.79-.06-.52-.93-.94-1.86-1.78-.45,1.17-1.03,1.94-.85,2.43.19.52,1.11.77,1.71,1.13Z"/>
        <path class="cls-1" d="M234.29,138.26c-3.24.53-5.53,3.79-4.96,7.06.56,3.24,3.83,5.51,7.1,4.91,3.24-.59,5.49-3.88,4.86-7.13-.61-3.18-3.77-5.37-7-4.84Z"/>
        <path class="cls-1" d="M231.48,124.06c-3.09.56-5.22,3.6-4.69,6.71.54,3.16,3.69,5.32,6.84,4.7,3.09-.61,5.17-3.68,4.59-6.77-.58-3.09-3.64-5.19-6.74-4.64Z"/>
        <path class="cls-1" d="M245.67,121.74c-2.91.53-4.91,3.52-4.29,6.4.61,2.85,3.51,4.75,6.34,4.17,2.85-.58,4.77-3.46,4.22-6.3-.55-2.85-3.41-4.79-6.27-4.27Z"/>
        <path class="cls-1" d="M251.19,150c-3.02.53-5.13,3.51-4.66,6.59.47,3.07,3.58,5.27,6.69,4.73,3.02-.53,5.13-3.51,4.66-6.59-.47-3.07-3.58-5.27-6.69-4.73Z"/>
        <path class="cls-1" d="M263.15,133.66c-2.73.41-4.69,3.13-4.25,5.88.44,2.73,3.17,4.66,5.92,4.19,2.66-.45,4.55-3.08,4.17-5.78-.38-2.73-3.08-4.71-5.84-4.29Z"/>
        <path class="cls-1" d="M253.87,164.46c-3.08.62-5.16,3.74-4.54,6.81.62,3.08,3.74,5.16,6.81,4.54,3.08-.62,5.16-3.74,4.54-6.81-.62-3.08-3.74-5.16-6.81-4.54Z"/>
        <path class="cls-1" d="M229.06,110.21c-3,.38-5.16,3.25-4.7,6.26.45,2.93,3.25,5.01,6.2,4.58,2.94-.42,5.03-3.21,4.63-6.16-.4-2.93-3.17-5.05-6.13-4.68Z"/>
        <path class="cls-1" d="M248.37,136.05c-3.04.61-4.95,3.42-4.38,6.47.58,3.12,3.46,5.07,6.57,4.45,3.04-.61,4.95-3.42,4.38-6.47-.58-3.12-3.46-5.07-6.57-4.45Z"/>
        <path class="cls-1" d="M200,115.16c-.18.03-.35.09-.53.14v-.02c-.08.02-.15.05-.23.08-.02,0-.03,0-.05.01h0c-2.8.97-4.63,3.96-4.06,6.94.31,1.63,1.29,2.99,2.6,3.87v.02c.08.06.17.11.26.16,0,0,0,0,0,0h0c1.26.77,2.78,1.1,4.3.81,3.26-.62,5.49-3.9,4.87-7.16-.62-3.25-3.9-5.49-7.16-4.87Z"/>
        <path class="cls-1" d="M202.57,128.95c-3.51.72-5.79,4.22-5.04,7.73.73,3.43,4.15,5.69,7.6,5.03,3.52-.68,5.85-4.15,5.14-7.67-.7-3.51-4.19-5.82-7.7-5.09Z"/>
        <path class="cls-1" d="M179.77,262.57s.03.03.05.04h0c1.28.98,2.94,1.45,4.59,1.13,3.02-.59,5.09-3.62,4.55-6.66-.54-3.08-3.68-5.22-6.76-4.62-.38.07-.73.2-1.08.35v-.02c-.08.03-.15.09-.23.12-.1.05-.21.09-.31.14v.02c-2.09,1.16-3.36,3.59-2.93,6.04.21,1.21.84,2.26,1.7,3.07v.03c.13.13.27.24.42.36Z"/>
        <path class="cls-1" d="M216.97,126.49c-3.4.6-5.64,3.81-5.02,7.19.62,3.39,3.85,5.61,7.23,4.97,3.39-.64,5.58-3.88,4.92-7.26-.65-3.31-3.81-5.49-7.13-4.9Z"/>
        <path class="cls-1" d="M214.28,112.71c-3.17.56-5.31,3.66-4.71,6.83.59,3.1,3.62,5.19,6.73,4.64,3.17-.56,5.31-3.66,4.71-6.83-.59-3.1-3.62-5.19-6.73-4.64Z"/>
        <path class="cls-1" d="M219.58,140.68c-3.45.68-5.76,4.06-5.15,7.52.63,3.53,4.06,5.91,7.58,5.26,3.53-.65,5.89-4.1,5.21-7.62-.67-3.52-4.13-5.86-7.65-5.16Z"/>
        <path class="cls-1" d="M227.84,183.29c-3.62.71-5.95,4.16-5.26,7.78.7,3.69,4.25,6.06,7.92,5.28,3.61-.76,5.9-4.24,5.16-7.85-.74-3.62-4.2-5.93-7.82-5.21Z"/>
        <path class="cls-1" d="M190.62,220.06c-3.6.7-6.07,4.35-5.37,7.96.7,3.61,4.33,6.07,7.95,5.37,3.61-.7,6.07-4.34,5.37-7.95-.7-3.61-4.35-6.08-7.95-5.38Z"/>
        <path class="cls-1" d="M236.95,152.29c-3.41.63-5.62,3.79-5.01,7.17.61,3.42,3.76,5.65,7.13,5.06,3.5-.61,5.73-3.81,5.08-7.27-.64-3.4-3.82-5.59-7.2-4.96Z"/>
        <path class="cls-1" d="M222.62,154.58c-3.66.49-6.21,3.96-5.66,7.67.54,3.59,3.91,6.08,7.58,5.58,3.66-.49,6.21-3.96,5.66-7.67-.54-3.59-3.91-6.08-7.58-5.58Z"/>
        <path class="cls-1" d="M225.16,169.01c-3.6.65-6.11,4.27-5.46,7.9.64,3.59,4.28,6.1,7.91,5.45,3.61-.65,6.1-4.26,5.45-7.9-.65-3.61-4.26-6.1-7.9-5.45Z"/>
        <path class="cls-1" d="M204.81,216.82c3.28-.51,5.79-3.42,5.92-6.81.08-2.01-.49-3.86-2-5.08-1.43-1.15-3.22-1.85-4.76-2.7,2.4-1.15,4.07-3.3,4.44-6.42,3.27,3.74,5.99,4.71,9.24,3.34,2.97-1.25,4.87-4.03,4.36-7.2-.26-1.63-1.17-3.4-2.33-4.57-1.13-1.13-2.95-1.58-4.42-2.3,3.07-1.72,4.76-4.38,4.02-8.22-.55-2.79-2.84-5.09-5.67-5.52-4.49-.68-7.17,1.64-8.62,5.62-.9-.84-1.61-1.68-2.49-2.28-.9-.61-1.96-.98-2.64-1.3,1.16-1.92,2.3-3.8,3.4-5.61,3.23,3.37,5.92,4.19,9.22,2.62,2.85-1.35,4.47-4.32,4.05-7.45-.4-2.97-2.78-5.54-5.81-5.98-4.73-.68-7.28,1.91-8.52,5.97-.93-.89-1.73-1.9-2.75-2.58-.98-.66-2.17-.99-3.27-1.46,3.46-3.02,4.41-6.07,2.9-9.29-.79-1.69-2.12-2.94-3.69-3.62h0s-.01,0-.02,0c-.1-.04-.19-.09-.29-.13v.02c-1.16-.45-2.42-.62-3.72-.4-3.13.53-5.57,3.1-5.94,6.27-.44,3.79,1.27,6.04,5.87,8.01-1.25,1.64-2.55,3.36-3.84,5.06-.61-.55-1.35-1.35-2.23-1.95-.87-.59-1.9-.96-2.87-1.43,2.98-3.02,3.75-5.9,2.42-9-1.12-2.62-4.01-4.53-6.81-4.36-4.26.27-6.55,2.77-7.32,6.91-2.87-3.65-5.55-4.77-8.83-3.79-2.71.81-4.8,3.25-5.03,6.12-.35,4.41,2.1,6.85,6.12,8.09-2.59,1.99-2.87,2.41-4.13,6.39-2.76-3.6-6.04-4.83-9.2-3.47-3.28,1.42-5.08,4.65-4.46,8.03.62,3.33,3.31,5.6,6.86,5.89,1.98.16,3.72-.5,4.95-1.88,1.18-1.33,1.94-3.03,2.68-4.25,1.49,1.21,3.26,2.64,5.03,4.07-.52.61-1.36,1.39-1.94,2.33-.59.96-.92,2.08-1.38,3.14-2.88-3.27-5.8-4.19-9.1-2.9-2.63,1.03-4.56,3.87-4.54,6.7.02,3.76,1.85,5.75,6.99,7.61-3.47,2.31-4.83,5.38-3.84,8.65.96,3.16,3.98,5.48,7.28,5.05,1.64-.21,3.44-1.05,4.65-2.16,1.19-1.1,1.72-2.91,2.44-4.22.79.8,1.69,2.02,2.88,2.82,1.15.77,2.61,1.09,3.93,1.61-3.33,2.02-4.8,5.1-3.94,8.31.87,3.23,3.69,5.37,7.11,5.36,1.93,0,3.7-.67,4.85-2.16,1.06-1.37,1.72-3.05,2.5-4.5,1.05,1.32,2.08,2.3,3.13,2.97v-.03c1.87,1.2,3.8,1.43,5.97.65,2.83-1.02,4.79-3.85,4.77-6.88-.02-3.45-2.08-5.78-6.28-7.22.86-.83,1.87-1.6,2.6-2.58.71-.97,1.12-2.15,1.72-3.35,1.61,2.34,3.85,3.41,6.83,3.59-3.95,2.22-5.55,5.6-4.47,8.85,1.17,3.51,4.45,5.56,7.99,5.01ZM164.16,200.35c-1.18-2.15-3.19-3.62-6.52-3.92,2.63-1.35,4.09-3.19,4.56-5.49,1.69,1.29,3.38,2.6,4.92,3.77-.92,1.76-1.95,3.73-2.95,5.64ZM171.55,158.91c.45.49,1.1,1.41,1.95,2.09.82.66,1.83,1.09,2.65,1.55-1.1,1.54-2.24,3.13-3.29,4.6-1.52-.89-3.24-1.89-4.66-2.72,1.07-1.76,2.22-3.65,3.36-5.52ZM171.86,178.99c.89-1.34,1.86-2.82,2.79-4.23.87.64,2.14,1.57,3.35,2.46-.84,1.19-1.75,2.46-2.64,3.72-1.32-.74-2.69-1.49-3.51-1.95ZM174.67,192.9c.58-.72,1.49-1.87,2.38-2.99,1.12.85,2.31,1.75,3.5,2.65-.46.81-1.06,1.86-1.67,2.94-1.42-.88-2.85-1.76-4.2-2.6ZM181.85,212.84c-1.57-2.92-3.64-4.46-6.21-4.64,1.45-1.7,2.92-3.43,4.26-5.01,1.58.94,3.51,2.09,5.43,3.22-1.93,1.22-3.23,3.28-3.48,6.43ZM190.85,177.87c-1.37-.83-2.85-1.72-4.3-2.59.62-1.05,1.49-2.53,2.02-3.42.85.66,1.77,1.38,2.71,2.11h0c.55.42,1.1.85,1.65,1.28-.66.83-1.28,1.61-1.75,2.2h0c-.11.14-.24.3-.33.42ZM192.33,192.96c-.96-.8-1.93-1.61-2.87-2.39.83-1.31,1.73-2.72,2.55-4.01,1.38.81,2.84,1.67,3.73,2.2-1.06,1.29-2.24,2.74-3.42,4.19ZM206.3,182.64c1.33,1.77,3.35,2.98,6.46,3.06-3.07,1.45-4.52,3.49-4.87,5.9-1.67-1.33-3.39-2.71-4.89-3.91.96-1.46,2.09-3.19,3.31-5.05Z"/>
        <path class="cls-1" d="M241.96,179.02c3.5-.64,5.7-3.85,5.03-7.32-.66-3.41-3.82-5.58-7.22-4.96-3.5.64-5.7,3.85-5.03,7.32.66,3.41,3.82,5.58,7.22,4.96Z"/>
        <path class="cls-1" d="M207.79,156.58c3.83-.65,6.36-4.22,5.66-8-.69-3.74-4.22-6.21-7.94-5.54-3.75.67-6.24,4.19-5.59,7.9.65,3.76,4.15,6.27,7.87,5.64Z"/>
        <path class="cls-1" d="M247.62,207.39c3.23-.67,5.33-3.84,4.69-7.06-.65-3.23-3.8-5.35-7.03-4.74-3.29.63-5.47,3.9-4.75,7.16.7,3.23,3.89,5.31,7.1,4.64Z"/>
        <path class="cls-1" d="M207.69,230.47c3.62-.72,5.94-4.17,5.24-7.8-.7-3.62-4.13-5.97-7.76-5.29-3.69.68-6.07,4.22-5.31,7.9.75,3.62,4.21,5.92,7.83,5.19Z"/>
        <path class="cls-1" d="M233.11,210.68c3.51-.65,5.89-4.18,5.17-7.68-.72-3.44-4.17-5.74-7.61-5.05-3.44.69-5.76,4.13-5.1,7.58.66,3.45,4.09,5.78,7.54,5.15Z"/>
        <path class="cls-1" d="M258.86,189.92c3.02-.6,5.08-3.63,4.54-6.67-.55-3.08-3.69-5.22-6.77-4.61-3.02.6-5.08,3.63-4.54,6.67.55,3.08,3.69,5.22,6.77,4.61Z"/>
        <path class="cls-1" d="M244.82,193.09c3.38-.67,5.53-3.89,4.86-7.28-.67-3.38-3.89-5.53-7.28-4.86-3.38.67-5.53,3.89-4.86,7.28.67,3.38,3.9,5.53,7.28,4.86Z"/>
        <path class="cls-1" d="M219.01,213.77c3.68-.67,6.18-4.31,5.49-7.99-.69-3.68-4.35-6.16-8.02-5.44-3.61.71-6.06,4.26-5.42,7.89.64,3.68,4.27,6.21,7.96,5.54Z"/>
        <path class="cls-1" d="M221.76,227.55c3.51-.68,5.86-4.24,5.11-7.72-.75-3.44-4.22-5.71-7.65-4.99-3.44.72-5.73,4.18-5.04,7.62.69,3.45,4.13,5.76,7.58,5.09Z"/>
        <path class="cls-1" d="M298.15,102.47c.36,1.62,2,2.69,3.63,2.35,1.63-.34,2.71-1.96,2.4-3.6-.31-1.63-1.93-2.74-3.56-2.45-1.7.3-2.84,2.01-2.47,3.7Z"/>
        <path class="cls-1" d="M228.6,323.44c-.28-1.55-1.7-2.58-3.25-2.35-1.63.24-2.7,1.73-2.41,3.35.28,1.55,1.7,2.58,3.25,2.35,1.63-.24,2.7-1.73,2.41-3.35Z"/>
        <path class="cls-1" d="M242.65,320.72c-.27-1.51-1.59-2.48-3.09-2.28-1.59.22-2.64,1.59-2.4,3.15.24,1.59,1.62,2.61,3.19,2.35,1.58-.26,2.58-1.66,2.3-3.22Z"/>
        <path class="cls-1" d="M245.14,347.8c-.51,1.04-1.11,1.69-.99,2.17.13.5.93.84,1.44,1.24.41-.55,1.11-1.09,1.15-1.67.03-.43-.8-.91-1.6-1.75Z"/>
        <path class="cls-1" d="M237.84,310.42c1.88-.37,3.09-2.2,2.69-4.08-.4-1.88-2.24-3.06-4.11-2.64-1.8.4-2.96,2.16-2.62,3.98.35,1.89,2.16,3.11,4.05,2.74Z"/>
        <path class="cls-1" d="M254.54,303.67c-.35-1.74-2.09-2.92-3.83-2.59-1.74.32-2.94,2.04-2.64,3.8.31,1.8,2.14,3.05,3.93,2.66,1.74-.37,2.89-2.13,2.54-3.87Z"/>
        <path class="cls-1" d="M230.76,337.6c-.26-1.2-1.54-2.03-2.74-1.78-1.2.26-2.03,1.54-1.78,2.74.26,1.2,1.54,2.03,2.74,1.78,1.2-.26,2.03-1.54,1.78-2.74Z"/>
        <path class="cls-1" d="M282.62,298.19c-.31-1.47-1.7-2.4-3.18-2.13-1.54.28-2.52,1.75-2.2,3.28.33,1.53,1.83,2.47,3.35,2.1,1.45-.35,2.34-1.78,2.03-3.25Z"/>
        <path class="cls-1" d="M244.76,335c-.2-1.23-1.27-1.98-2.48-1.76-1.22.22-1.98,1.3-1.71,2.52.28,1.25,1.11,1.83,2.38,1.69,1.23-.14,2.01-1.23,1.81-2.44Z"/>
        <path class="cls-1" d="M270.94,315.29c-.21-1.4-1.46-2.29-2.85-2.03-1.32.25-2.17,1.43-1.96,2.75.21,1.4,1.46,2.29,2.85,2.03,1.32-.25,2.17-1.43,1.96-2.75Z"/>
        <path class="cls-1" d="M273.15,328.96c-.74-.29-1.61-.96-2.18-.77-.61.2-1.32,1.22-1.33,1.9-.02,1.12.97,1.75,2.03,1.33.67-.26,1.11-1.1,1.66-1.68-.06-.26-.12-.52-.17-.78Z"/>
        <path class="cls-1" d="M273.92,342.89c-.39.66-.85,1.1-.79,1.44.06.36.63.63.97.94.32-.39.83-.75.89-1.17.04-.28-.56-.66-1.08-1.22Z"/>
        <path class="cls-1" d="M268.77,300.86c-.35-1.6-2.04-2.68-3.63-2.33-1.6.35-2.68,2.04-2.33,3.63.35,1.6,2.04,2.68,3.63,2.33,1.6-.35,2.68-2.04,2.33-3.63Z"/>
        <path class="cls-1" d="M256.69,317.96c-.25-1.35-1.68-2.36-3.05-2.15-1.42.21-2.49,1.73-2.22,3.15.25,1.35,1.68,2.36,3.05,2.15,1.42-.21,2.49-1.73,2.22-3.15Z"/>
        <path class="cls-1" d="M258.78,332.25c-.22-1.27-1.13-1.76-2.39-1.68-1.19.4-1.85,1.2-1.58,2.46.25,1.17,1.11,1.76,2.28,1.57,1.26-.21,1.9-1.09,1.68-2.35Z"/>
        <path class="cls-1" d="M259.37,345.94c-.29-.03-.98.86-.93,1.26.06.48.73.89,1.41,1.63.47-.91,1.04-1.52.91-1.87-.18-.48-.87-.98-1.39-1.03Z"/>
        <path class="cls-1" d="M231.12,351.18c-.53.14-1.25,1.09-1.18,1.58.07.49,1.03,1.19,1.58,1.18.52-.01,1.02-.84,1.94-1.7-1.13-.55-1.84-1.2-2.35-1.06Z"/>
        <path class="cls-1" d="M188.01,359.52c-.39.57-1.06,1.14-1.07,1.72,0,.43.84.87,1.69,1.66.46-1.06,1.02-1.75.88-2.21-.15-.5-.97-.79-1.5-1.17Z"/>
        <path class="cls-1" d="M223.75,313.2c1.92-.4,3.08-2.15,2.7-4.09-.38-1.93-2.12-3.11-4.06-2.75-2.01.38-3.2,2.19-2.76,4.19.42,1.91,2.19,3.05,4.12,2.65Z"/>
        <path class="cls-1" d="M195.07,318.8c2-.38,3.21-2.21,2.78-4.21-.41-1.92-2.17-3.08-4.1-2.71-2,.38-3.21,2.21-2.78,4.21.41,1.92,2.17,3.08,4.1,2.71Z"/>
        <path class="cls-1" d="M173.74,362.35c-.33.52-.99,1.1-.9,1.54.1.51.85.9,1.67,1.67.42-1.03.98-1.74.8-2.12-.23-.5-1.02-.74-1.57-1.09Z"/>
        <path class="cls-1" d="M185.42,331.67c-.34-1.55-1.76-2.47-3.33-2.15-1.56.32-2.5,1.73-2.2,3.29.31,1.63,1.8,2.59,3.42,2.22,1.54-.36,2.44-1.8,2.1-3.36Z"/>
        <path class="cls-1" d="M200.05,328.96c-.28-1.57-1.85-2.67-3.43-2.39-1.57.28-2.67,1.85-2.39,3.43.28,1.57,1.85,2.67,3.43,2.39,1.57-.28,2.67-1.85,2.39-3.43Z"/>
        <path class="cls-1" d="M180.64,321.5c1.88-.4,3.05-2.24,2.63-4.12-.41-1.8-2.16-2.96-3.98-2.62-1.89.36-3.11,2.16-2.73,4.05.38,1.88,2.2,3.08,4.08,2.68Z"/>
        <path class="cls-1" d="M187.52,346.14c-.18-1.23-1.23-2.01-2.45-1.82-1.23.2-2.01,1.27-1.76,2.48.26,1.25,1.07,1.86,2.34,1.74,1.24-.12,2.04-1.19,1.87-2.41Z"/>
        <path class="cls-1" d="M202.16,343.23c-.21-1.21-1.46-2.08-2.67-1.87-1.21.21-2.08,1.46-1.87,2.67.21,1.21,1.46,2.08,2.67,1.87,1.21-.21,2.08-1.46,1.87-2.67Z"/>
        <path class="cls-1" d="M216.3,340.49c-.21-1.21-1.45-2.08-2.67-1.88-1.21.21-2.08,1.45-1.88,2.67.21,1.21,1.45,2.08,2.67,1.88,1.21-.21,2.08-1.45,1.88-2.67Z"/>
        <path class="cls-1" d="M216.56,354c-.52.18-1.18,1.16-1.08,1.65.1.49,1.1,1.13,1.65,1.08.52-.04.97-.9,1.84-1.81-1.16-.48-1.92-1.09-2.41-.92Z"/>
        <path class="cls-1" d="M214.18,326.14c-.33-1.57-1.93-2.62-3.49-2.29-1.57.33-2.62,1.93-2.29,3.49.33,1.57,1.93,2.62,3.49,2.29,1.57-.33,2.62-1.93,2.29-3.49Z"/>
        <path class="cls-1" d="M202.42,356.74c-.52.18-1.18,1.16-1.08,1.65.1.49,1.1,1.13,1.65,1.08.52-.04.97-.9,1.84-1.81-1.16-.48-1.91-1.09-2.41-.92Z"/>
        <path class="cls-1" d="M209.21,316.06c1.94-.37,3.14-2.1,2.81-4.04-.34-2.01-2.14-3.26-4.14-2.88-1.94.37-3.14,2.11-2.81,4.04.35,2.01,2.14,3.26,4.14,2.88Z"/>
        <path class="cls-1" d="M322.8,289.04c-.53.16-1.21,1.13-1.12,1.62.09.49,1.07,1.16,1.62,1.12.52-.03.99-.87,1.89-1.76-1.15-.51-1.88-1.14-2.38-.99Z"/>
        <path class="cls-1" d="M344.91,240.96c-.79-.29-1.69-.96-2.34-.77-.59.17-1.27,1.25-1.29,1.95-.03,1.12.96,1.8,2.02,1.39.72-.27,1.2-1.14,1.79-1.74-.06-.28-.12-.55-.18-.83Z"/>
        <path class="cls-1" d="M345.51,254.93c-.36.59-1.01,1.18-1,1.76.01.43.88.84,1.76,1.6.41-1.08.95-1.79.78-2.25-.17-.49-1-.75-1.55-1.1Z"/>
        <path class="cls-1" d="M342.3,227.21c-.27-1.2-1.4-1.91-2.6-1.58-1.23.34-1.77,1.2-1.57,2.46.2,1.23,1.31,1.94,2.53,1.69,1.21-.25,1.91-1.36,1.64-2.57Z"/>
        <path class="cls-1" d="M333.79,258.24c-.83-.39-1.67-1.09-2.49-1.08-1.15.01-1.72,1.01-1.63,2.18.09,1.07,1.42,2.07,2.35,1.6.77-.39,1.29-1.28,1.92-1.94-.05-.25-.1-.51-.15-.76Z"/>
        <path class="cls-1" d="M351.47,196.28c-.04-.25-.08-.51-.13-.76-.82-.41-1.64-1.14-2.47-1.15-1.15-.02-1.75.97-1.69,2.14.05,1.07,1.36,2.11,2.31,1.66.78-.36,1.32-1.24,1.97-1.89Z"/>
        <path class="cls-1" d="M336.97,286.76c-.34.12-.52.72-.77,1.1.43.26.87.71,1.3.7.28,0,.56-.66,1.02-1.27-.71-.27-1.21-.65-1.55-.53Z"/>
        <path class="cls-1" d="M336.52,272.87c-1.13-.55-1.85-1.19-2.35-1.05-.53.15-1.24,1.1-1.17,1.59.07.49,1.03,1.19,1.59,1.17.52-.02,1.01-.85,1.93-1.7Z"/>
        <path class="cls-1" d="M365.93,206.73c-.36.08-.6.66-.9,1.02.4.3.79.79,1.22.83.28.03.63-.59,1.16-1.14-.69-.35-1.15-.79-1.48-.71Z"/>
        <path class="cls-1" d="M363.25,192.36c-.49.15-.8.85-1.18,1.32.44.36.9,1.03,1.3,1,.48-.04.92-.67,1.71-1.32-.89-.51-1.47-1.11-1.83-.99Z"/>
        <path class="cls-1" d="M331.17,244.08c-.27-1.28-1.56-2.12-2.84-1.85-1.28.27-2.12,1.56-1.85,2.84.27,1.28,1.56,2.12,2.84,1.85,1.28-.27,2.12-1.56,1.85-2.84Z"/>
        <path class="cls-1" d="M360.29,178.09c-.49.17-.75,1-1.11,1.54.59.37,1.18,1.01,1.76,1,.43,0,.84-.88,1.6-1.76-1.08-.41-1.79-.95-2.25-.79Z"/>
        <path class="cls-1" d="M357.43,162.75c-.55,1.13-1.19,1.85-1.05,2.35.15.53,1.04.86,1.6,1.28.42-.57,1.17-1.14,1.15-1.69-.02-.52-.85-1.01-1.7-1.93Z"/>
        <path class="cls-1" d="M353.83,209.69c-.72-.34-1.44-.95-2.16-.95-1.13,0-1.83.95-1.39,1.99.26.62,1.29,1.31,1.94,1.27.61-.03,1.16-.98,1.74-1.52-.04-.26-.09-.53-.13-.79Z"/>
        <path class="cls-1" d="M354.47,223.51c-.53.16-.83,1.06-1.23,1.64.58.4,1.17,1.14,1.72,1.1.52-.03.99-.87,1.89-1.76-1.15-.51-1.88-1.14-2.38-.99Z"/>
        <path class="cls-1" d="M357.2,237.52c-.38.76-.85,1.25-.77,1.62.09.39.71.65,1.1.97.32-.43.85-.85.9-1.31.03-.31-.63-.69-1.23-1.28Z"/>
        <path class="cls-1" d="M298.81,324.36c.44.31.86.84,1.32.87.31.02.67-.64,1.26-1.26-.76-.37-1.27-.82-1.64-.73-.38.1-.63.72-.94,1.12Z"/>
        <path class="cls-1" d="M284.76,312.48c-.25-1.21-1.35-1.95-2.56-1.64-1.24.31-1.8,1.15-1.63,2.42.17,1.23,1.27,1.98,2.49,1.75,1.22-.23,1.95-1.31,1.7-2.53Z"/>
        <path class="cls-1" d="M305.97,264.06c-.28-1.53-1.86-2.66-3.42-2.43-1.6.24-2.79,1.91-2.5,3.52.28,1.53,1.86,2.66,3.42,2.43,1.6-.24,2.79-1.91,2.5-3.52Z"/>
        <path class="cls-1" d="M299.06,309.33c-.73-.32-1.47-.91-2.18-.89-1.14.03-1.8,1-1.34,2.02.28.62,1.33,1.27,1.97,1.22.61-.05,1.14-1.01,1.7-1.57-.05-.26-.1-.53-.15-.79Z"/>
        <path class="cls-1" d="M308.17,278.26c-.28-1.4-1.5-2.22-2.91-1.94-1.4.28-2.22,1.5-1.94,2.91.28,1.4,1.5,2.22,2.91,1.94,1.4-.28,2.22-1.5,1.94-2.91Z"/>
        <path class="cls-1" d="M296.77,295.56c-.22-1.29-1.47-2.18-2.76-1.96-1.29.22-2.18,1.47-1.96,2.76.22,1.29,1.47,2.18,2.76,1.96,1.29-.22,2.18-1.47,1.96-2.76Z"/>
        <path class="cls-1" d="M285.11,325.69c-.52.19-1.15,1.19-1.04,1.68.11.48,1.13,1.1,1.68,1.04.52-.06.94-.92,1.79-1.85-1.17-.45-1.94-1.04-2.43-.86Z"/>
        <path class="cls-1" d="M294.51,280.96c-.28-1.57-1.85-2.67-3.43-2.39-1.57.28-2.67,1.85-2.39,3.43.28,1.57,1.85,2.67,3.43,2.39,1.57-.28,2.67-1.85,2.39-3.43Z"/>
        <path class="cls-1" d="M328.77,229.86c-.32-1.53-1.82-2.47-3.34-2.1-1.45.35-2.34,1.78-2.03,3.24.31,1.47,1.7,2.4,3.18,2.13,1.54-.28,2.53-1.74,2.2-3.28Z"/>
        <path class="cls-1" d="M322.25,275.41c-.44-1.04-1.2-1.75-2.47-1.45-1.16.27-1.75,1.13-1.54,2.3.22,1.26,1.11,1.89,2.37,1.66,1.27-.23,1.75-1.15,1.65-2.51Z"/>
        <path class="cls-1" d="M308.19,291.27c-1.07.14-2.02,1.5-1.51,2.41.42.75,1.33,1.24,2.02,1.84.25-.06.5-.12.75-.18.35-.85,1.02-1.71.98-2.54-.06-1.14-1.07-1.69-2.24-1.54Z"/>
        <path class="cls-1" d="M173.26,348.87c-.19-1.28-1.1-1.78-2.35-1.73-1.2.38-1.87,1.16-1.63,2.43.22,1.18,1.08,1.78,2.25,1.62,1.26-.18,1.92-1.05,1.74-2.31Z"/>
        <path class="cls-1" d="M319.92,261.38c-.24-1.41-1.45-2.26-2.85-2.02-1.41.24-2.26,1.45-2.02,2.85.24,1.41,1.45,2.27,2.85,2.02,1.41-.24,2.26-1.45,2.02-2.85Z"/>
        <path class="cls-1" d="M311.15,305.96c-.41.56-1.1,1.1-1.14,1.68-.03.43.8.91,1.62,1.73.5-1.04,1.09-1.7.97-2.18-.13-.5-.94-.83-1.45-1.23Z"/>
        <path class="cls-1" d="M317.57,246.71c-.33-1.56-1.94-2.61-3.5-2.29-1.56.33-2.61,1.94-2.29,3.5.33,1.56,1.94,2.61,3.5,2.28,1.56-.33,2.61-1.94,2.29-3.5Z"/>
        <path class="cls-1" d="M295.68,88.14c.28,1.58,1.69,2.55,3.26,2.24,1.57-.3,2.52-1.73,2.19-3.3-.32-1.56-1.77-2.49-3.33-2.14-1.49.33-2.39,1.69-2.12,3.2Z"/>
        <path class="cls-1" d="M329.65,173.35c1.57-.28,2.67-1.85,2.39-3.43-.28-1.57-1.85-2.67-3.43-2.39-1.57.28-2.67,1.85-2.39,3.43.28,1.57,1.85,2.67,3.43,2.39Z"/>
        <path class="cls-1" d="M332.47,187.65c1.57-.3,2.52-1.73,2.19-3.3-.32-1.56-1.77-2.49-3.33-2.14-1.49.33-2.39,1.69-2.13,3.2.28,1.58,1.69,2.55,3.26,2.24Z"/>
        <path class="cls-1" d="M335.11,201.72c1.42-.22,2.48-1.74,2.2-3.16-.26-1.35-1.69-2.35-3.06-2.14-1.42.22-2.48,1.74-2.2,3.16.26,1.35,1.69,2.35,3.06,2.14Z"/>
        <path class="cls-1" d="M337.77,215.62c1.4-.21,2.29-1.46,2.04-2.84-.24-1.32-1.42-2.17-2.74-1.97-1.4.21-2.29,1.45-2.04,2.84.24,1.32,1.42,2.17,2.74,1.97Z"/>
        <path class="cls-1" d="M323.5,156.91c.33,1.56,1.94,2.61,3.5,2.29,1.56-.33,2.61-1.94,2.29-3.5-.33-1.56-1.94-2.61-3.5-2.29-1.56.33-2.61,1.94-2.29,3.5Z"/>
        <path class="cls-1" d="M323.9,218.94c1.61-.34,2.7-2.01,2.37-3.61-.34-1.61-2.01-2.7-3.61-2.37-1.61.34-2.7,2.01-2.37,3.61.34,1.61,2.01,2.7,3.61,2.37Z"/>
        <path class="cls-1" d="M212.88,44.8c.31,1.72,1.93,2.83,3.64,2.5,1.72-.33,2.8-1.96,2.45-3.68-.34-1.64-1.89-2.71-3.54-2.43-1.72.29-2.86,1.89-2.55,3.61Z"/>
        <path class="cls-1" d="M325.74,67.42c-.75-.4-1.24-.88-1.61-.8-.39.09-.66.7-.99,1.08.43.33.83.87,1.29.92.31.03.7-.62,1.3-1.21Z"/>
        <path class="cls-1" d="M323.07,138.92c-1.57.28-2.67,1.85-2.39,3.43.28,1.57,1.85,2.67,3.43,2.39,1.57-.28,2.67-1.85,2.39-3.43-.28-1.57-1.85-2.67-3.43-2.39Z"/>
        <path class="cls-1" d="M325.69,82.43c.11.48,1.13,1.1,1.68,1.04.52-.06.94-.92,1.79-1.85-1.17-.45-1.94-1.04-2.43-.86-.52.19-1.15,1.19-1.04,1.68Z"/>
        <path class="cls-1" d="M318.06,128.1c.25,1.58,1.61,2.6,3.17,2.38,1.65-.24,2.69-1.67,2.4-3.3-.29-1.57-1.67-2.54-3.24-2.28-1.58.27-2.57,1.64-2.33,3.2Z"/>
        <path class="cls-1" d="M330.53,110.75c.24,1.25,1.13,1.87,2.39,1.63,1.27-.25,1.73-1.18,1.62-2.43-.43-1.18-1.24-1.82-2.5-1.52-1.15.28-1.73,1.15-1.51,2.32Z"/>
        <path class="cls-1" d="M328.13,96.6c.15.6,1.21,1.32,1.9,1.36,1.11.07,1.84-.89,1.47-1.97-.25-.73-1.1-1.25-1.68-1.86-.28.05-.56.1-.83.16-.32.78-1.02,1.65-.86,2.31Z"/>
        <path class="cls-1" d="M333.21,125.06c.09,1.25,1.13,2.08,2.34,1.94,1.24-.14,2.06-1.18,1.9-2.39-.16-1.23-1.22-2.06-2.43-1.84-1.25.23-1.9,1-1.81,2.29Z"/>
        <path class="cls-1" d="M335.81,139.5c.26,1.2,1.54,2.03,2.74,1.77,1.2-.26,2.03-1.54,1.77-2.74-.26-1.2-1.54-2.03-2.74-1.77-1.2.26-2.03,1.54-1.77,2.74Z"/>
        <path class="cls-1" d="M298.2,239.69c2.08-.41,3.39-2.37,2.98-4.45-.41-2.08-2.37-3.39-4.45-2.98-2.08.41-3.39,2.37-2.98,4.45.41,2.08,2.37,3.39,4.45,2.98Z"/>
        <path class="cls-1" d="M277.85,287.5c1.73-.4,2.87-2.17,2.5-3.9-.37-1.74-2.13-2.89-3.86-2.55-1.74.35-2.92,2.08-2.6,3.83.33,1.81,2.18,3.03,3.96,2.62Z"/>
        <path class="cls-1" d="M284.11,242.84c2.36-.46,3.8-2.6,3.32-4.96-.46-2.29-2.54-3.71-4.83-3.3-2.38.42-3.86,2.53-3.42,4.89.44,2.37,2.57,3.83,4.93,3.37Z"/>
        <path class="cls-1" d="M289.45,270.7c1.87-.33,3.15-2.22,2.75-4.08-.39-1.79-2.22-2.99-4.01-2.63-1.8.36-3.02,2.17-2.68,3.98.34,1.8,2.14,3.05,3.94,2.73Z"/>
        <path class="cls-1" d="M286.64,256.66c2.2-.35,3.59-2.29,3.21-4.46-.38-2.12-2.26-3.47-4.36-3.14-2.2.35-3.59,2.29-3.21,4.46.38,2.12,2.26,3.47,4.36,3.14Z"/>
        <path class="cls-1" d="M269.74,246.09c2.51-.5,4.18-3.02,3.66-5.52-.51-2.45-2.91-4.07-5.38-3.64-2.51.44-4.23,2.93-3.76,5.45.47,2.51,2.97,4.21,5.48,3.71Z"/>
        <path class="cls-1" d="M275.05,273.87c2.09-.38,3.44-2.32,3.06-4.4-.38-2.09-2.32-3.44-4.4-3.07-2.09.38-3.44,2.32-3.07,4.4.38,2.09,2.32,3.44,4.4,3.07Z"/>
        <path class="cls-1" d="M272.32,259.84c2.4-.43,3.91-2.65,3.41-5.04-.48-2.32-2.64-3.75-4.97-3.29-2.33.46-3.78,2.61-3.34,4.94.44,2.33,2.57,3.81,4.91,3.39Z"/>
        <path class="cls-1" d="M307.15,208.29c2.09-.42,3.39-2.36,2.99-4.45-.4-2.1-2.32-3.42-4.42-3.04-2.11.38-3.45,2.29-3.09,4.38.38,2.18,2.36,3.54,4.52,3.11Z"/>
        <path class="cls-1" d="M309.85,222.19c1.95-.4,3.19-2.26,2.79-4.21-.4-1.95-2.26-3.19-4.21-2.79-1.95.4-3.19,2.26-2.79,4.21.4,1.95,2.26,3.19,4.21,2.79Z"/>
        <path class="cls-1" d="M318.42,191.04c1.89-.35,3.11-2.16,2.74-4.05-.37-1.88-2.2-3.09-4.08-2.69-1.81.38-2.99,2.12-2.67,3.95.33,1.9,2.12,3.14,4.01,2.79Z"/>
        <path class="cls-1" d="M312.54,236.41c1.74-.32,2.94-2.04,2.65-3.8-.29-1.74-2-2.97-3.76-2.7-1.74.27-2.99,1.96-2.74,3.73.25,1.81,2.05,3.1,3.86,2.77Z"/>
        <path class="cls-1" d="M300.79,253.5c1.9-.33,3.14-2.12,2.79-4.01-.35-1.89-2.16-3.11-4.05-2.74-1.88.37-3.09,2.2-2.69,4.08.38,1.81,2.12,2.99,3.95,2.67Z"/>
        <path class="cls-1" d="M315.37,113.73c.28,1.44,1.76,2.43,3.19,2.15,1.44-.28,2.43-1.76,2.15-3.2-.28-1.44-1.76-2.43-3.19-2.15-1.44.28-2.43,1.76-2.15,3.2Z"/>
        <path class="cls-1" d="M295.38,225.54c2.23-.4,3.74-2.59,3.32-4.81-.41-2.16-2.51-3.64-4.68-3.3-2.23.35-3.79,2.51-3.42,4.74.37,2.23,2.55,3.76,4.78,3.37Z"/>
        <path class="cls-1" d="M320.95,205.07c1.82-.22,3.13-1.98,2.83-3.8-.28-1.74-1.99-2.98-3.75-2.72-1.74.26-3,1.94-2.76,3.72.23,1.75,1.89,3.02,3.67,2.81Z"/>
        <path class="cls-1" d="M312.91,99.51c.26,1.39,1.54,2.23,2.92,1.93,1.31-.29,2.11-1.5,1.86-2.82-.26-1.39-1.54-2.23-2.92-1.93-1.31.29-2.11,1.5-1.86,2.82Z"/>
        <path class="cls-1" d="M249.39,63.94c-1.91.4-3.07,2.18-2.67,4.1.4,1.91,2.18,3.07,4.1,2.67,1.91-.4,3.07-2.18,2.67-4.1-.4-1.91-2.18-3.07-4.1-2.67Z"/>
        <path class="cls-1" d="M242.15,39.24c.3,1.39,1.55,2.18,2.95,1.88,1.39-.3,2.18-1.55,1.88-2.95-.3-1.39-1.55-2.18-2.95-1.88-1.39.3-2.18,1.55-1.88,2.95Z"/>
        <path class="cls-1" d="M239.97,24.62c.29.68,1.46,1.46,2.11,1.36.71-.11,1.28-1.18,1.91-1.84-.06-.26-.13-.51-.19-.77-.8-.35-1.61-1-2.39-.96-1.17.06-1.9,1.14-1.44,2.2Z"/>
        <path class="cls-1" d="M258.87,50.65c.29,1.37,1.74,2.32,3.11,2.03,1.37-.29,2.32-1.74,2.03-3.11-.29-1.37-1.74-2.32-3.11-2.03-1.37.29-2.32,1.74-2.03,3.11Z"/>
        <path class="cls-1" d="M256.66,36.31c.17,1.22,1.32,1.98,2.52,1.67,1.25-.33,1.72-1.2,1.61-2.24-.28-1.35-1.34-2.07-2.47-1.82-1.25.28-1.83,1.11-1.66,2.38Z"/>
        <path class="cls-1" d="M261.23,65.17c.32,1.63,1.93,2.74,3.57,2.44,1.7-.31,2.84-2.02,2.46-3.7-.36-1.62-2.01-2.68-3.64-2.34-1.63.34-2.71,1.97-2.39,3.6Z"/>
        <path class="cls-1" d="M256.4,23.46c.41-1.08.95-1.79.79-2.25-.17-.49-1-.75-1.55-1.1-.36.59-1.01,1.18-1,1.76.01.43.88.84,1.76,1.6Z"/>
        <path class="cls-1" d="M224.47,14.78c.23-.04.46-.07.7-.11.32-.69.98-1.45.86-2.06-.1-.54-1.22-1.37-1.63-1.24-.61.19-1.38,1.11-1.38,1.71,0,.57.92,1.13,1.44,1.69Z"/>
        <path class="cls-1" d="M239.17,11.23c.48-.08.87-.75,1.6-1.45-.92-.44-1.55-1-1.89-.86-.47.19-.95.9-.99,1.42-.02.29.89.96,1.29.89Z"/>
        <path class="cls-1" d="M217.94,54.78c-1.88.39-3.21,2.32-2.9,4.23.32,1.95,2.33,3.36,4.29,3.02,1.95-.35,3.34-2.38,2.97-4.33-.37-1.95-2.42-3.32-4.36-2.92Z"/>
        <path class="cls-1" d="M225.09,27.34c.13,1.27,1.33,2.1,2.58,1.87,1.18-.21,1.97-1.3,1.81-2.49-.18-1.26-1.34-2.13-2.59-1.86-1.3.29-1.93,1.15-1.8,2.48Z"/>
        <path class="cls-1" d="M227.29,41.95c.27,1.65,1.72,2.65,3.35,2.32,1.56-.32,2.5-1.72,2.21-3.29-.3-1.57-1.69-2.53-3.25-2.26-1.57.28-2.56,1.65-2.31,3.22Z"/>
        <path class="cls-1" d="M232.18,52.33c-1.77.34-3.03,2.19-2.69,3.96.34,1.77,2.19,3.03,3.96,2.69,1.77-.34,3.03-2.19,2.69-3.96-.34-1.77-2.19-3.03-3.96-2.69Z"/>
        <path class="cls-1" d="M244.36,53.48c.34,1.53,1.95,2.61,3.49,2.33,1.6-.29,2.74-2.01,2.39-3.59-.34-1.53-1.95-2.61-3.49-2.33-1.6.29-2.74,2.01-2.39,3.59Z"/>
        <path class="cls-1" d="M263.69,290.53c1.95-.4,3.19-2.26,2.79-4.21-.4-1.95-2.26-3.19-4.21-2.79-1.95.4-3.19,2.26-2.79,4.21s2.26,3.19,4.21,2.79Z"/>
        <path class="cls-1" d="M290.87,59.35c.19,1.27,1.11,1.78,2.37,1.72,1.19-.39,1.86-1.17,1.61-2.44-.23-1.17-1.09-1.77-2.26-1.6-1.26.18-1.91,1.06-1.72,2.32Z"/>
        <path class="cls-1" d="M293.22,73.6c.23,1.32,1.41,2.18,2.73,1.99,1.4-.2,2.31-1.44,2.06-2.83-.23-1.32-1.41-2.18-2.73-1.99-1.4.2-2.31,1.44-2.06,2.83Z"/>
        <path class="cls-1" d="M304.24,42.82c.32-.39.83-.75.89-1.17.04-.28-.56-.66-1.08-1.22-.39.66-.85,1.1-.79,1.44.06.36.63.63.97.94Z"/>
        <path class="cls-1" d="M310.37,85.26c.2,1.26,1.38,2.11,2.61,1.82,1.3-.3,1.91-1.18,1.76-2.5-.15-1.26-1.36-2.08-2.6-1.83-1.18.23-1.95,1.33-1.77,2.52Z"/>
        <path class="cls-1" d="M307.43,58.29c.46-1.06,1.02-1.75.88-2.21-.15-.5-.97-.79-1.5-1.17-.39.57-1.06,1.14-1.07,1.72,0,.43.84.87,1.69,1.66Z"/>
        <path class="cls-1" d="M308.09,70.73c.13.6,1.17,1.36,1.86,1.42,1.1.09,1.87-.83,1.53-1.93-.23-.73-1.06-1.28-1.62-1.91-.28.04-.56.09-.83.13-.35.77-1.07,1.62-.93,2.28Z"/>
        <path class="cls-1" d="M278.49,76.36c.22,1.54,1.76,2.71,3.34,2.54,1.6-.17,2.85-1.81,2.62-3.43-.22-1.54-1.76-2.71-3.34-2.54-1.6.17-2.85,1.81-2.62,3.43Z"/>
        <path class="cls-1" d="M276.14,62.23c.24,1.38,1.66,2.37,3.04,2.13,1.38-.24,2.37-1.66,2.13-3.04-.24-1.38-1.66-2.37-3.04-2.13-1.38.24-2.37,1.66-2.13,3.04Z"/>
        <path class="cls-1" d="M273.87,47.61c.15,1.22,1.3,2,2.49,1.71,1.26-.31,1.74-1.18,1.62-2.44-.37-1.2-1.15-1.86-2.42-1.63-1.26.23-1.85,1.08-1.69,2.35Z"/>
        <path class="cls-1" d="M271.68,33.36c.22.6,1.18,1.32,1.78,1.28.57-.03,1.08-.98,1.62-1.52-.05-.23-.1-.46-.14-.69-.71-.29-1.5-.91-2.1-.76-.53.13-1.3,1.28-1.15,1.69Z"/>
        <path class="cls-1" d="M290.36,46.04c.57-.04,1.07-.99,1.6-1.54-.05-.23-.1-.46-.15-.69-.71-.28-1.51-.89-2.11-.74-.53.14-1.29,1.3-1.14,1.7.23.6,1.19,1.31,1.79,1.26Z"/>
        <path class="cls-1" d="M287.35,31.42c.32-.39.83-.75.89-1.17.04-.28-.56-.66-1.08-1.22-.39.66-.85,1.1-.79,1.44.06.36.63.63.97.94Z"/>
        <path class="cls-1" d="M271.73,18.36c-.7-.3-1.18-.71-1.52-.61-.35.1-.56.69-.83,1.06.42.28.83.74,1.26.76.28.01.59-.63,1.09-1.21Z"/>
        <path class="cls-1" d="M177.96,76.44c-2.57.41-4.38,2.94-3.95,5.52.43,2.57,2.98,4.36,5.56,3.9,2.57-.46,4.33-3.02,3.85-5.59-.47-2.5-2.93-4.23-5.46-3.83Z"/>
        <path class="cls-1" d="M175.25,62.56c-2.38.4-3.87,2.51-3.44,4.87.43,2.3,2.48,3.75,4.77,3.37,2.38-.4,3.87-2.51,3.44-4.87-.43-2.3-2.48-3.75-4.77-3.37Z"/>
        <path class="cls-1" d="M165.96,92.91c-2.91.57-4.77,3.37-4.17,6.26.58,2.84,3.28,4.66,6.13,4.15,2.91-.52,4.82-3.28,4.27-6.2-.55-2.91-3.33-4.79-6.23-4.22Z"/>
        <path class="cls-1" d="M152,95.65c-2.96.49-4.87,3.18-4.35,6.11.52,2.88,3.15,4.75,6.02,4.28,2.96-.49,4.87-3.18,4.35-6.12-.52-2.88-3.14-4.75-6.02-4.28Z"/>
        <path class="cls-1" d="M137.44,98.58c-2.86.53-4.69,3.23-4.13,6.08.55,2.78,3.2,4.57,5.98,4.06,2.86-.53,4.7-3.23,4.13-6.08-.55-2.78-3.2-4.57-5.98-4.06Z"/>
        <path class="cls-1" d="M134.92,84.91c-2.46.36-4.2,2.66-3.91,5.18.29,2.53,2.65,4.36,5.23,4.03,2.53-.31,4.34-2.7,3.99-5.27-.34-2.53-2.75-4.31-5.31-3.94Z"/>
        <path class="cls-1" d="M132.23,70.96c-2.17.31-3.74,2.35-3.5,4.53.25,2.24,2.35,3.9,4.59,3.62,2.24-.27,3.87-2.39,3.57-4.63-.3-2.24-2.42-3.85-4.66-3.53Z"/>
        <path class="cls-1" d="M146.5,68.13c-2.29.44-3.73,2.51-3.32,4.8.42,2.38,2.54,3.84,4.9,3.39,2.29-.44,3.72-2.51,3.32-4.8-.42-2.37-2.54-3.84-4.9-3.39Z"/>
        <path class="cls-1" d="M180.43,90.17c-2.88.57-4.66,3.23-4.11,6.12.55,2.88,3.2,4.69,6.08,4.16,2.96-.55,4.78-3.27,4.18-6.22-.59-2.86-3.27-4.63-6.15-4.06Z"/>
        <path class="cls-1" d="M160.86,65.32c-2.4.36-3.95,2.42-3.58,4.78.37,2.39,2.46,3.92,4.81,3.54,2.38-.39,3.89-2.5,3.48-4.85-.4-2.31-2.43-3.8-4.72-3.46Z"/>
        <path class="cls-1" d="M163.41,79.24c-2.58.46-4.35,2.97-3.89,5.55.46,2.58,2.97,4.35,5.55,3.89,2.58-.46,4.35-2.97,3.89-5.55-.46-2.58-2.97-4.35-5.55-3.89Z"/>
        <path class="cls-1" d="M149.18,82.02c-2.5.49-4.21,2.96-3.79,5.48.43,2.57,2.97,4.36,5.55,3.91,2.57-.45,4.34-3.01,3.86-5.58-.48-2.57-3.05-4.31-5.62-3.81Z"/>
        <path class="cls-1" d="M194.69,87.5c-2.76.5-4.63,3.17-4.15,5.93.48,2.77,3.13,4.66,5.9,4.2,2.83-.47,4.75-3.21,4.22-6.03-.52-2.76-3.2-4.6-5.96-4.1Z"/>
        <path class="cls-1" d="M153,254.88c3.1-.61,5.17-3.64,4.61-6.74-.57-3.17-3.68-5.3-6.84-4.68-3.1.6-5.17,3.64-4.61,6.74.57,3.17,3.68,5.3,6.84,4.68Z"/>
        <path class="cls-1" d="M164.52,238.67c3.52-.68,5.85-4.15,5.15-7.66-.7-3.51-4.18-5.82-7.7-5.1-3.44.71-5.73,4.11-5.08,7.56.66,3.52,4.11,5.88,7.63,5.2Z"/>
        <path class="cls-1" d="M189.34,59.91c-2.14.37-3.66,2.5-3.33,4.66.33,2.21,2.54,3.79,4.75,3.4,2.14-.37,3.66-2.5,3.33-4.66-.33-2.21-2.54-3.79-4.76-3.4Z"/>
        <path class="cls-1" d="M167.21,252.39c3.25-.65,5.45-3.97,4.77-7.19-.67-3.19-3.85-5.33-7.06-4.76-3.24.58-5.49,3.87-4.87,7.12.62,3.25,3.92,5.47,7.16,4.82Z"/>
        <path class="cls-1" d="M135.78,243.54c3.1-.6,5.17-3.64,4.62-6.74-.57-3.17-3.68-5.3-6.84-4.68-3.1.6-5.17,3.64-4.62,6.74.57,3.17,3.68,5.3,6.84,4.68Z"/>
        <path class="cls-1" d="M133.09,229.68c3.25-.64,5.48-3.96,4.82-7.2-.67-3.26-4.01-5.46-7.24-4.77-3.19.69-5.34,3.9-4.75,7.1.6,3.25,3.91,5.5,7.17,4.87Z"/>
        <path class="cls-1" d="M169.89,266.35c3.05-.59,4.97-3.41,4.4-6.46-.58-3.06-3.39-5-6.43-4.45-3.07.56-5.03,3.35-4.5,6.4.55,3.14,3.41,5.12,6.53,4.52Z"/>
        <path class="cls-1" d="M138.43,257.34c2.92-.56,4.89-3.43,4.36-6.36-.53-2.93-3.39-4.92-6.32-4.41-2.93.51-4.94,3.36-4.46,6.29.5,3,3.44,5.05,6.42,4.47Z"/>
        <path class="cls-1" d="M147.6,227.28c3.54-.66,5.87-4.07,5.21-7.6-.66-3.54-4.07-5.87-7.6-5.21-3.54.66-5.87,4.07-5.21,7.6.66,3.54,4.07,5.87,7.6,5.21Z"/>
        <path class="cls-1" d="M150.09,241.13c3.41-.55,5.72-3.73,5.15-7.1-.57-3.41-3.76-5.69-7.14-5.1-3.4.59-5.66,3.79-5.05,7.17.6,3.33,3.73,5.57,7.04,5.03Z"/>
        <path class="cls-1" d="M207,58.51s-.07-.08-.11-.12v.02c-.85-.83-2.06-1.25-3.36-1.03-2.18.38-3.56,2.35-3.16,4.52.4,2.18,2.39,3.53,4.56,3.11.41-.08.77-.23,1.12-.42h0s.03-.01.04-.02c.05-.03.11-.05.16-.08v-.02c1.35-.82,2.08-2.38,1.74-4.05-.15-.73-.49-1.36-.95-1.86h0s-.03-.03-.04-.05Z"/>
        <path class="cls-1" d="M173.1,304.29c.09.62.36,1.18.72,1.67.03.04.05.07.08.11.04.05.07.1.1.14v-.02c.92,1.1,2.4,1.74,3.87,1.47,2.12-.4,3.62-2.57,3.25-4.7-.37-2.12-2.52-3.65-4.67-3.3-.62.1-1.19.37-1.68.74h0s-.05.03-.08.06c-.07.05-.13.11-.2.17-.12.1-.22.21-.33.33-.02.02-.04.04-.06.06h0c-.77.89-1.18,2.08-1.01,3.28Z"/>
        <path class="cls-1" d="M123.51,101.51c-2.78.41-4.61,2.91-4.16,5.67.45,2.7,2.88,4.49,5.58,4.08,2.78-.41,4.61-2.91,4.16-5.67-.45-2.7-2.88-4.49-5.58-4.08Z"/>
        <path class="cls-1" d="M192.01,73.89c-2.49.47-4.11,2.8-3.69,5.3.44,2.56,2.84,4.24,5.4,3.75,2.49-.47,4.11-2.8,3.69-5.3-.44-2.56-2.84-4.24-5.4-3.75Z"/>
        <path class="cls-1" d="M169.01,320.21c-.37-1.74-2.12-2.9-3.86-2.56-1.74.34-2.92,2.08-2.61,3.82.32,1.74,2.03,2.95,3.79,2.66,1.81-.3,3.05-2.13,2.67-3.92Z"/>
        <path class="cls-1" d="M163.68,310.18c2.18-.41,3.51-2.38,3.06-4.56-.43-2.1-2.35-3.39-4.46-2.99-2.18.41-3.51,2.38-3.06,4.56.43,2.1,2.35,3.39,4.46,2.99Z"/>
        <path class="cls-1" d="M175.16,293.99c.17-.03.33-.09.49-.14h0c2.24-.65,3.61-2.77,3.19-5.11-.29-1.59-1.29-2.81-2.62-3.38v.03c-.79-.35-1.69-.49-2.63-.32-2.53.45-4.13,2.74-3.68,5.25.46,2.53,2.74,4.13,5.25,3.68Z"/>
        <path class="cls-1" d="M172.62,280.04c2.72-.58,4.54-3.39,3.94-6.09-.59-2.66-3.29-4.43-5.96-3.92-2.73.53-4.59,3.3-4.04,6.02.55,2.73,3.35,4.57,6.06,3.99Z"/>
        <path class="cls-1" d="M117.94,73.91c-2.13.4-3.52,2.42-3.14,4.56.39,2.2,2.51,3.62,4.69,3.16,2.12-.45,3.47-2.5,3.04-4.62-.43-2.12-2.46-3.49-4.59-3.09Z"/>
        <path class="cls-1" d="M55.59,212.54c1.94-.31,3.37-2.32,3.03-4.28-.34-1.95-2.36-3.35-4.32-2.98-1.95.37-3.32,2.41-2.93,4.35.38,1.89,2.31,3.22,4.22,2.91Z"/>
        <path class="cls-1" d="M61.28,240.92c1.92-.41,3.07-2.17,2.67-4.11-.39-1.93-2.14-3.09-4.07-2.72-1.94.37-3.12,2.1-2.77,4.04.37,2.01,2.17,3.22,4.17,2.79Z"/>
        <path class="cls-1" d="M70.29,210.21c2.35-.47,3.78-2.62,3.29-4.98-.47-2.28-2.56-3.69-4.85-3.27-2.37.43-3.84,2.56-3.39,4.92.45,2.36,2.59,3.81,4.95,3.34Z"/>
        <path class="cls-1" d="M63.84,255c1.77-.29,3.07-2.11,2.77-3.9-.29-1.77-2.11-3.07-3.9-2.77-1.77.29-3.07,2.11-2.77,3.9.29,1.77,2.11,3.07,3.9,2.77Z"/>
        <path class="cls-1" d="M58.29,226.64c1.99-.29,3.4-2.29,3.02-4.28-.36-1.92-2.28-3.24-4.21-2.9-1.92.34-3.26,2.25-2.95,4.18.31,1.92,2.2,3.29,4.14,3Z"/>
        <path class="cls-1" d="M52.91,197.98c1.92-.39,3.22-2.33,2.85-4.24-.36-1.92-2.28-3.24-4.21-2.9-1.92.34-3.26,2.24-2.95,4.18.32,1.98,2.34,3.37,4.31,2.97Z"/>
        <path class="cls-1" d="M57.62,145.2c-1.95.41-3.29,2.46-2.88,4.41.41,1.95,2.46,3.29,4.41,2.88,1.95-.41,3.29-2.46,2.88-4.41-.41-1.95-2.46-3.29-4.41-2.88Z"/>
        <path class="cls-1" d="M54.95,131.34c-1.82.37-3.01,2.1-2.7,3.93.32,1.9,2.1,3.16,3.99,2.82,1.89-.34,3.13-2.14,2.77-4.03-.36-1.89-2.17-3.1-4.06-2.72Z"/>
        <path class="cls-1" d="M120.61,87.87c-2.42.48-3.98,2.78-3.53,5.2.47,2.49,2.85,4.08,5.34,3.54,2.41-.52,3.92-2.85,3.43-5.27-.5-2.41-2.81-3.95-5.24-3.48Z"/>
        <path class="cls-1" d="M72.93,224.34c2.37-.42,3.84-2.55,3.38-4.91-.45-2.29-2.52-3.72-4.81-3.31-2.37.42-3.84,2.55-3.38,4.91.45,2.29,2.52,3.72,4.81,3.31Z"/>
        <path class="cls-1" d="M92.72,250.49c2.4-.45,4.01-2.79,3.56-5.19-.45-2.4-2.79-4.01-5.19-3.56-2.4.45-4.01,2.79-3.56,5.19.45,2.4,2.79,4.01,5.19,3.56Z"/>
        <path class="cls-1" d="M87.18,222.18c2.49-.43,4.26-2.9,3.88-5.42-.38-2.55-2.95-4.39-5.52-3.95-2.49.43-4.26,2.9-3.88,5.42.38,2.55,2.95,4.39,5.52,3.95Z"/>
        <path class="cls-1" d="M89.99,236.5c2.49-.45,4.13-2.78,3.72-5.27-.42-2.56-2.82-4.25-5.37-3.79-2.49.46-4.13,2.78-3.72,5.27.42,2.56,2.82,4.25,5.37,3.79Z"/>
        <path class="cls-1" d="M81.17,266.62c1.95-.36,3.33-2.39,2.95-4.34-.39-1.95-2.44-3.31-4.37-2.9-1.88.4-3.2,2.34-2.88,4.24.33,1.95,2.35,3.35,4.31,3Z"/>
        <path class="cls-1" d="M75.74,238.76c2.23-.4,3.74-2.59,3.32-4.81-.41-2.15-2.51-3.64-4.68-3.3-2.23.35-3.79,2.51-3.42,4.74.37,2.23,2.55,3.76,4.78,3.37Z"/>
        <path class="cls-1" d="M78.4,252.68c2.18-.38,3.57-2.34,3.17-4.51-.4-2.18-2.37-3.54-4.55-3.12-2.11.4-3.45,2.31-3.11,4.41.35,2.19,2.31,3.6,4.48,3.22Z"/>
        <path class="cls-1" d="M60.6,159.09c-2.16.28-3.64,2.2-3.38,4.37.26,2.16,2.16,3.67,4.33,3.43,2.22-.24,3.78-2.24,3.46-4.46-.31-2.15-2.25-3.62-4.41-3.34Z"/>
        <path class="cls-1" d="M106.29,90.92c-2.38.42-3.86,2.53-3.42,4.89.44,2.37,2.57,3.83,4.93,3.37,2.36-.46,3.8-2.6,3.32-4.96-.46-2.29-2.54-3.71-4.83-3.3Z"/>
        <path class="cls-1" d="M103.54,76.91c-1.96.34-3.36,2.35-3.01,4.32.34,1.96,2.35,3.36,4.32,3.01,1.96-.34,3.36-2.35,3.01-4.32-.34-1.96-2.35-3.36-4.32-3.01Z"/>
        <path class="cls-1" d="M97.43,121.72c-2.57.53-4.26,3.09-3.73,5.66.53,2.57,3.09,4.26,5.66,3.73,2.57-.53,4.26-3.09,3.73-5.66-.53-2.57-3.09-4.26-5.66-3.73Z"/>
        <path class="cls-1" d="M66.34,114.02c-2.01.37-3.23,2.18-2.82,4.18.39,1.92,2.15,3.11,4.08,2.75,2.01-.37,3.23-2.18,2.82-4.18-.39-1.92-2.15-3.11-4.08-2.75Z"/>
        <path class="cls-1" d="M108.98,104.56c-2.48.39-4.27,2.88-3.88,5.4.39,2.49,2.88,4.27,5.4,3.88,2.48-.39,4.27-2.88,3.88-5.4-.39-2.49-2.88-4.27-5.4-3.88Z"/>
        <path class="cls-1" d="M94.8,107.63c-2.31.42-3.93,2.79-3.51,5.1.42,2.31,2.79,3.93,5.1,3.51,2.31-.42,3.93-2.79,3.51-5.1-.42-2.31-2.79-3.93-5.1-3.51Z"/>
        <path class="cls-1" d="M111.58,118.63c-2.82.54-4.67,3.33-4.06,6.14.59,2.74,3.32,4.51,6.07,3.94,2.75-.57,4.54-3.29,3.99-6.04-.55-2.75-3.25-4.57-6.01-4.04Z"/>
        <path class="cls-1" d="M121.54,245.88c2.9-.56,4.89-3.55,4.28-6.42-.61-2.84-3.49-4.75-6.32-4.21-2.9.56-4.89,3.55-4.28,6.42.61,2.84,3.49,4.75,6.32,4.21Z"/>
        <path class="cls-1" d="M71.76,141.98c-2.3.43-3.76,2.48-3.39,4.76.38,2.39,2.48,3.91,4.83,3.51,2.38-.4,3.88-2.51,3.46-4.87-.42-2.37-2.54-3.85-4.9-3.41Z"/>
        <path class="cls-1" d="M78.13,97.06c-2.01.35-3.26,2.14-2.88,4.14.37,1.94,2.11,3.14,4.04,2.81,2.01-.35,3.26-2.14,2.88-4.14-.37-1.94-2.11-3.14-4.04-2.81Z"/>
        <path class="cls-1" d="M92,94.01c-2.08.46-3.36,2.41-2.95,4.52.42,2.17,2.41,3.51,4.58,3.07,2.16-.44,3.48-2.45,3.02-4.62-.46-2.15-2.49-3.45-4.65-2.97Z"/>
        <path class="cls-1" d="M69.03,128.16c-2.1.41-3.43,2.32-3.08,4.43.37,2.19,2.33,3.58,4.5,3.2,2.18-.39,3.55-2.36,3.15-4.53-.41-2.18-2.39-3.52-4.56-3.1Z"/>
        <path class="cls-1" d="M89.48,79.95c-1.8.3-3.08,2.08-2.8,3.9.28,1.8,2.05,3.1,3.86,2.85,1.87-.27,3.21-2.13,2.87-4-.33-1.8-2.12-3.05-3.93-2.75Z"/>
        <path class="cls-1" d="M83.53,124.81c-2.31.37-3.98,2.7-3.63,5.04.35,2.37,2.79,4.09,5.17,3.65,2.3-.43,3.93-2.79,3.53-5.11-.4-2.3-2.74-3.96-5.07-3.58Z"/>
        <path class="cls-1" d="M80.85,110.74c-2.16.32-3.7,2.46-3.32,4.63.36,2.1,2.41,3.56,4.54,3.25,2.16-.32,3.7-2.46,3.32-4.63-.36-2.1-2.41-3.56-4.54-3.25Z"/>
        <path class="cls-1" d="M93.36,177.01c2.87-.47,4.77-3.14,4.26-5.99-.5-2.79-3.11-4.65-5.89-4.19-2.87.47-4.77,3.14-4.26,5.99.5,2.79,3.11,4.65,5.89,4.19Z"/>
        <path class="cls-1" d="M95.53,264.31c2.25-.48,3.64-2.62,3.17-4.9-.47-2.26-2.59-3.67-4.86-3.22-2.27.45-3.7,2.56-3.27,4.83.44,2.35,2.62,3.79,4.96,3.29Z"/>
        <path class="cls-1" d="M159.35,211.38c-3.75.68-6.23,4.2-5.57,7.92.66,3.75,4.17,6.25,7.88,5.62,3.83-.65,6.34-4.23,5.64-8.02-.7-3.74-4.23-6.19-7.95-5.52Z"/>
        <path class="cls-1" d="M88.8,152.55c-2.65.51-4.41,3.03-3.98,5.7.44,2.72,3.03,4.56,5.76,4.1,2.72-.46,4.54-3.08,4.05-5.8-.49-2.72-3.12-4.51-5.83-4Z"/>
        <path class="cls-1" d="M84.44,208.07c2.59-.46,4.35-2.97,3.89-5.55-.46-2.58-2.97-4.35-5.55-3.89-2.58.46-4.35,2.97-3.89,5.55.46,2.58,2.97,4.35,5.55,3.89Z"/>
        <path class="cls-1" d="M81.68,193.57c2.57-.48,4.31-3.05,3.81-5.62-.5-2.57-3.09-4.29-5.65-3.76-2.5.52-4.18,3-3.74,5.51.45,2.57,3.01,4.34,5.58,3.86Z"/>
        <path class="cls-1" d="M86.13,138.65c-2.48.46-4.22,2.98-3.78,5.48.43,2.48,2.93,4.24,5.45,3.83,2.54-.41,4.36-3.04,3.85-5.58-.49-2.48-3.02-4.2-5.51-3.73Z"/>
        <path class="cls-1" d="M145.35,140.02c-3.54.71-5.81,4.14-5.1,7.7.71,3.54,4.14,5.81,7.7,5.1,3.54-.71,5.81-4.14,5.1-7.7-.71-3.54-4.14-5.81-7.7-5.1Z"/>
        <path class="cls-1" d="M136.71,171.13c-3.62.74-6.05,4.39-5.31,7.99.74,3.62,4.39,6.05,7.99,5.31,3.62-.74,6.05-4.39,5.31-7.99-.74-3.62-4.39-6.05-7.99-5.32Z"/>
        <path class="cls-1" d="M134.13,157.2c-3.58.67-5.91,4.02-5.26,7.57.66,3.66,4.07,5.99,7.7,5.28,3.56-.7,5.84-4.08,5.16-7.64-.68-3.57-4.05-5.88-7.6-5.21Z"/>
        <path class="cls-1" d="M121.97,172.48c3.26-.61,5.49-3.86,4.9-7.13-.59-3.27-3.81-5.52-7.1-4.95-3.27.56-5.54,3.77-5,7.06.54,3.33,3.86,5.65,7.2,5.02Z"/>
        <path class="cls-1" d="M108.33,177.62c-3.09.6-5.18,3.66-4.61,6.76.58,3.15,3.75,5.28,6.89,4.63,3.08-.65,5.13-3.75,4.51-6.83-.62-3.08-3.7-5.15-6.79-4.56Z"/>
        <path class="cls-1" d="M148.05,154.13c-3.73.76-6.1,4.29-5.38,8.04.73,3.83,4.28,6.24,8.1,5.5,3.82-.74,6.21-4.31,5.45-8.14-.76-3.81-4.34-6.18-8.17-5.4Z"/>
        <path class="cls-1" d="M162.44,150.27c3.62-.72,6.06-4.36,5.35-7.97-.72-3.62-4.36-6.06-7.97-5.35-3.62.72-6.06,4.36-5.35,7.97.72,3.62,4.36,6.06,7.97,5.35Z"/>
        <path class="cls-1" d="M43.25,148.59c-1.74.36-2.78,1.96-2.42,3.71.36,1.74,1.96,2.78,3.71,2.42,1.74-.36,2.78-1.96,2.42-3.71-.36-1.74-1.96-2.78-3.71-2.42Z"/>
        <path class="cls-1" d="M131.44,143.04c-3.42.61-5.65,3.76-5.06,7.13.61,3.5,3.81,5.73,7.27,5.08,3.4-.64,5.59-3.82,4.96-7.2-.63-3.41-3.79-5.62-7.17-5.01Z"/>
        <path class="cls-1" d="M38.64,200.15c1.61-.32,2.72-1.98,2.39-3.59-.32-1.61-1.98-2.72-3.59-2.39-1.61.32-2.72,1.98-2.39,3.59.32,1.61,1.98,2.72,3.59,2.39Z"/>
        <path class="cls-1" d="M43.31,166.42c.33,1.77,2.17,3.03,3.95,2.7,1.77-.33,3.03-2.17,2.7-3.95-.33-1.77-2.17-3.03-3.95-2.7-1.77.33-3.03,2.17-2.7,3.95Z"/>
        <path class="cls-1" d="M32.9,171.26c1.55-.23,2.58-1.67,2.31-3.21-.26-1.48-1.63-2.46-3.11-2.24-1.55.23-2.58,1.67-2.31,3.21.26,1.48,1.63,2.46,3.11,2.24Z"/>
        <path class="cls-1" d="M35.82,185.92c1.57-.28,2.67-1.85,2.39-3.43-.28-1.57-1.85-2.67-3.43-2.39-1.57.28-2.67,1.85-2.39,3.43.28,1.57,1.85,2.67,3.43,2.39Z"/>
        <path class="cls-1" d="M40.65,134.68c-1.55.28-2.57,1.7-2.34,3.25.25,1.63,1.73,2.7,3.35,2.41,1.55-.28,2.57-1.7,2.34-3.25-.25-1.63-1.73-2.7-3.35-2.41Z"/>
        <path class="cls-1" d="M32.23,153.82c-.31-1.36-1.59-2.19-2.96-1.92-1.37.27-2.24,1.52-2.02,2.89.24,1.45,1.55,2.37,2.99,2.08,1.44-.28,2.31-1.63,1.98-3.06Z"/>
        <path class="cls-1" d="M41.45,214.63c1.61-.33,2.71-1.99,2.39-3.59-.33-1.61-1.99-2.71-3.59-2.39-1.61.33-2.71,1.99-2.39,3.59.33,1.61,1.99,2.71,3.59,2.39Z"/>
        <path class="cls-1" d="M64.63,181.52c2.23-.39,3.75-2.57,3.33-4.8-.41-2.22-2.61-3.72-4.83-3.28-2.15.42-3.62,2.54-3.26,4.7.37,2.23,2.54,3.77,4.77,3.38Z"/>
        <path class="cls-1" d="M78.92,179.31c2.51-.46,4.21-2.96,3.72-5.47-.48-2.45-2.86-4.1-5.34-3.7-2.51.41-4.26,2.87-3.82,5.41.44,2.52,2.92,4.24,5.44,3.77Z"/>
        <path class="cls-1" d="M67.44,195.71c2.3-.43,3.74-2.5,3.34-4.79-.41-2.38-2.53-3.86-4.89-3.41-2.3.43-3.74,2.5-3.34,4.79.41,2.38,2.53,3.86,4.89,3.41Z"/>
        <path class="cls-1" d="M76.1,164.64c2.43-.46,4-2.76,3.56-5.18-.44-2.43-2.73-4.03-5.15-3.61-2.44.42-4.06,2.69-3.66,5.12.41,2.51,2.76,4.15,5.25,3.67Z"/>
        <path class="cls-1" d="M44.19,228.77c1.61-.32,2.72-1.98,2.39-3.59-.32-1.61-1.98-2.72-3.59-2.39-1.61.32-2.72,1.98-2.39,3.59.32,1.61,1.98,2.72,3.59,2.39Z"/>
        <path class="cls-1" d="M50.14,183.69c1.93-.39,3.1-2.13,2.73-4.06-.37-1.94-2.1-3.13-4.03-2.78-2.01.36-3.22,2.16-2.8,4.16.41,1.92,2.16,3.07,4.1,2.68Z"/>
        <path class="cls-1" d="M176.45,147.6c3.68-.64,6.21-4.27,5.55-7.95-.66-3.68-4.3-6.19-7.99-5.5-3.68.69-6.16,4.34-5.45,8.02.7,3.61,4.26,6.06,7.89,5.43Z"/>
        <path class="cls-1" d="M114.22,132.43c-2.96.58-4.89,3.41-4.35,6.37.56,3.04,3.44,5.01,6.47,4.42,2.96-.58,4.89-3.41,4.35-6.37-.56-3.04-3.44-5.01-6.47-4.42Z"/>
        <path class="cls-1" d="M142.81,126.23c-3.27.58-5.52,3.81-4.96,7.09.57,3.33,3.9,5.63,7.23,4.98,3.27-.64,5.47-3.89,4.86-7.16-.61-3.26-3.85-5.5-7.13-4.91Z"/>
        <path class="cls-1" d="M102.86,149.35c-2.91.56-4.89,3.48-4.33,6.38.56,2.91,3.48,4.89,6.38,4.33,2.91-.56,4.89-3.48,4.33-6.38-.56-2.91-3.48-4.89-6.38-4.33Z"/>
        <path class="cls-1" d="M116.88,146.23c-3.14.62-5.17,3.61-4.61,6.75.58,3.23,3.61,5.32,6.82,4.72,3.22-.6,5.29-3.64,4.67-6.85-.62-3.21-3.67-5.26-6.89-4.62Z"/>
        <path class="cls-1" d="M140.29,112.57c-3.06.48-5.11,3.24-4.7,6.32.42,3.14,3.24,5.27,6.37,4.82,3.14-.45,5.25-3.28,4.78-6.41-.47-3.13-3.32-5.22-6.45-4.73Z"/>
        <path class="cls-1" d="M128.78,129.25c-3.23.57-5.35,3.58-4.77,6.79.59,3.23,3.61,5.32,6.82,4.72,3.15-.59,5.23-3.55,4.7-6.69-.55-3.24-3.55-5.38-6.75-4.82Z"/>
        <path class="cls-1" d="M126.03,115.51c-2.91.54-4.9,3.44-4.37,6.36.54,2.91,3.44,4.91,6.36,4.37,2.91-.54,4.9-3.44,4.37-6.36-.54-2.91-3.44-4.9-6.36-4.37Z"/>
        <path class="cls-1" d="M105.93,163.6c-3.14.43-5.27,3.24-4.82,6.38.45,3.14,3.28,5.24,6.42,4.77,3.13-.47,5.22-3.33,4.72-6.45-.48-3.06-3.25-5.11-6.32-4.69Z"/>
        <path class="cls-1" d="M104.72,234.19c2.74-.59,4.52-3.31,3.96-6.06-.57-2.75-3.28-4.55-6.03-4.01-2.75.54-4.58,3.24-4.06,6,.53,2.82,3.32,4.68,6.13,4.07Z"/>
        <path class="cls-1" d="M100.18,135.51c-2.76.52-4.6,3.21-4.1,5.97.51,2.83,3.28,4.7,6.1,4.12,2.75-.57,4.55-3.28,4-6.03-.55-2.75-3.25-4.57-6-4.05Z"/>
        <path class="cls-1" d="M116,217.66c3.16-.56,5.3-3.72,4.66-6.87-.63-3.08-3.72-5.15-6.8-4.54-3.09.6-5.17,3.67-4.59,6.77.58,3.09,3.64,5.2,6.73,4.64Z"/>
        <path class="cls-1" d="M113.12,203.57c3.23-.51,5.42-3.54,4.87-6.73-.54-3.15-3.51-5.29-6.64-4.8-3.23.51-5.42,3.54-4.87,6.73.54,3.15,3.5,5.29,6.63,4.8Z"/>
        <path class="cls-1" d="M96.28,191.23c2.94-.56,4.77-3.31,4.16-6.24-.59-2.86-3.27-4.64-6.14-4.1-2.93.56-4.77,3.31-4.16,6.24.59,2.86,3.27,4.64,6.14,4.1Z"/>
        <path class="cls-1" d="M99.16,205.78c2.87-.59,4.76-3.45,4.17-6.31-.59-2.87-3.45-4.76-6.31-4.17-2.87.59-4.76,3.45-4.17,6.31.59,2.87,3.45,4.76,6.31,4.17Z"/>
        <path class="cls-1" d="M101.89,219.84c2.86-.59,4.65-3.26,4.11-6.13-.56-2.94-3.3-4.78-6.23-4.18-2.86.59-4.65,3.26-4.11,6.13.56,2.94,3.3,4.78,6.23,4.18Z"/>
        <path class="cls-1" d="M144.86,213.04c3.6-.68,6.06-4.29,5.38-7.91-.68-3.61-4.29-6.06-7.91-5.38-3.61.68-6.06,4.29-5.38,7.91.68,3.61,4.29,6.06,7.91,5.38Z"/>
        <path class="cls-1" d="M118.78,231.93c3.12-.57,5.09-3.45,4.5-6.55-.59-3.11-3.48-5.06-6.59-4.45-3.04.6-4.97,3.41-4.43,6.45.55,3.12,3.41,5.12,6.52,4.55Z"/>
        <path class="cls-1" d="M196.39,136.8c-.02-.08-.04-.16-.06-.24h0c-.8-3.47-4.32-5.81-7.85-5.14-3.61.68-6.06,4.3-5.38,7.91.68,3.61,4.3,6.06,7.91,5.38,2.08-.39,3.76-1.77,4.7-3.54v.02s.02-.05.03-.07c.16-.31.3-.62.41-.95h0s.01-.03.02-.05v-.06c.25-.74.35-1.52.32-2.32v-.05c0-.3-.04-.59-.09-.89Z"/>
        <path class="cls-1" d="M127.55,201.27c3.44-.65,5.67-3.89,5.04-7.34-.63-3.44-3.86-5.69-7.31-5.09-3.51.61-5.8,3.94-5.11,7.44.67,3.44,3.93,5.64,7.37,4.99Z"/>
        <path class="cls-1" d="M130.41,215.31c3.39-.7,5.5-3.9,4.83-7.31-.68-3.47-3.93-5.62-7.41-4.9-3.39.7-5.5,3.9-4.83,7.31.68,3.47,3.93,5.62,7.41,4.9Z"/>
        <path class="cls-1" d="M124.63,186.76c3.49-.61,5.74-3.81,5.11-7.27-.63-3.49-3.84-5.71-7.3-5.06-3.42.64-5.62,3.77-5.04,7.17.59,3.5,3.77,5.77,7.23,5.16Z"/>
        <path class="cls-1" d="M181.03,249.8h0c.19-.01.38-.04.57-.07,3.41-.62,5.63-3.78,5.03-7.16-.38-2.12-1.74-3.78-3.52-4.6v-.02c-.08-.04-.17-.06-.25-.09-.07-.03-.13-.06-.2-.09h0c-.97-.34-2.05-.47-3.15-.28-3.5.6-5.75,3.8-5.1,7.26.6,3.21,3.46,5.34,6.63,5.05Z"/>
        <path class="cls-1" d="M168.65,106.85c-3.21.63-5.24,3.7-4.59,6.91.64,3.13,3.64,5.15,6.78,4.57,3.22-.6,5.3-3.63,4.69-6.84-.62-3.21-3.66-5.27-6.88-4.64Z"/>
        <path class="cls-1" d="M157.27,123.31c-3.49.64-5.7,3.85-5.04,7.32.64,3.41,3.79,5.61,7.18,5.02,3.5-.6,5.76-3.79,5.14-7.25-.62-3.49-3.82-5.73-7.28-5.09Z"/>
        <path class="cls-1" d="M171.44,120.5c-3.45.6-5.72,3.82-5.14,7.27.59,3.51,3.9,5.82,7.41,5.16,3.44-.65,5.67-3.9,5.04-7.34-.63-3.44-3.86-5.69-7.31-5.09Z"/>
        <path class="cls-1" d="M201.17,102.15c-.06-.03-.11-.07-.17-.1v.02c-1.09-.56-2.37-.78-3.7-.51-3.03.61-4.95,3.43-4.4,6.48.57,3.12,3.43,5.1,6.54,4.51.05,0,.09-.02.14-.03h0s0,0,0,0c.09-.02.18-.04.27-.07h0c2.86-.76,4.62-3.51,4.05-6.48-.33-1.68-1.33-3.01-2.68-3.78h0s-.04-.02-.06-.03Z"/>
        <path class="cls-1" d="M183.17,104.08c-3.15.61-5.26,3.79-4.58,6.92.67,3.08,3.79,5.1,6.86,4.46,3.08-.64,5.13-3.74,4.51-6.82-.62-3.08-3.7-5.16-6.79-4.56Z"/>
        <path class="cls-1" d="M154.69,109.58c-3.18.53-5.35,3.61-4.77,6.78.56,3.1,3.57,5.22,6.68,4.71,3.18-.53,5.35-3.61,4.77-6.78-.56-3.1-3.57-5.22-6.68-4.71Z"/>
        <path class="cls-1" d="M185.92,117.78c-3.5.63-5.71,3.84-5.04,7.32.65,3.42,3.81,5.59,7.21,4.97,3.5-.63,5.71-3.84,5.04-7.32-.65-3.42-3.81-5.59-7.21-4.97Z"/>
        <path class="cls-1" d="M142.2,198.97c3.66-.73,6.2-4.52,5.44-8.11-.77-3.64-4.54-6.08-8.19-5.31-3.62.76-6.01,4.36-5.31,7.99.71,3.7,4.37,6.16,8.06,5.42Z"/>
        <path class="cls-1" d="M17.46,244.45c-.52.19-1.15,1.19-1.04,1.68.11.48,1.13,1.1,1.68,1.04.52-.06.94-.92,1.79-1.85-1.17-.45-1.94-1.04-2.43-.86Z"/>
        <path class="cls-1" d="M23.06,273.03c-.28.46-.78.92-.78,1.38,0,.31.69.62,1.35,1.16.31-.79.72-1.32.6-1.68-.13-.37-.77-.58-1.18-.85Z"/>
        <path class="cls-1" d="M20.33,258.7c-.5.21-.76,1-1.13,1.55.51.34,1.08,1.02,1.51.94.52-.09.92-.83,1.71-1.63-1.01-.45-1.71-1.02-2.09-.85Z"/>
        <path class="cls-1" d="M28.72,214c-.24-1.28-1.51-2.16-2.79-1.92-1.28.24-2.16,1.51-1.92,2.79.24,1.28,1.51,2.16,2.79,1.92,1.28-.24,2.16-1.51,1.92-2.79Z"/>
        <path class="cls-1" d="M31.41,228.1c-.35-1.33-1.3-1.97-2.66-1.84-1.25.12-2.18,1.48-1.96,2.73.21,1.25,1.53,2.15,2.77,1.91,1.24-.24,2.18-1.58,1.85-2.8Z"/>
        <path class="cls-1" d="M14.88,229.43c-.23.05-.46.11-.68.16-.27.72-.87,1.52-.7,2.12.14.52,1.32,1.26,1.72,1.1.59-.23,1.29-1.21,1.23-1.81-.05-.57-1.01-1.05-1.57-1.57Z"/>
        <path class="cls-1" d="M11.25,201.97c-.7-.31-1.57-1.04-2.06-.84-.63.25-.96,1.25-1.42,1.93.64.44,1.35,1.28,1.92,1.2.64-.09,1.16-1.02,1.74-1.58-.06-.24-.11-.47-.17-.71Z"/>
        <path class="cls-1" d="M13.8,216.97c-.24-.63-1.23-1.31-1.91-1.33-.43,0-1.3,1.21-1.23,1.78.08.64,1,1.18,1.56,1.76.24-.05.47-.11.71-.16.32-.7,1.06-1.55.87-2.05Z"/>
        <path class="cls-1" d="M42.48,298.25c-.33.96-.78,1.59-.65,2.06.11.39,1.1.93,1.35.79.45-.25.89-.98.87-1.49-.02-.37-.78-.71-1.57-1.36Z"/>
        <path class="cls-1" d="M34.08,242.56c-.27-1.17-1.39-1.9-2.58-1.67-1.25.24-2.06,1.45-1.73,2.67.35,1.29,1.25,1.87,2.57,1.67,1.25-.19,2.03-1.43,1.74-2.67Z"/>
        <path class="cls-1" d="M6.29,186.42c-.51,1.15-1.14,1.88-.99,2.38.16.53,1.06.83,1.64,1.23.4-.58,1.14-1.17,1.1-1.73-.03-.52-.87-.99-1.76-1.89Z"/>
        <path class="cls-1" d="M51.83,253.87c-.29-1.47-1.67-2.43-3.14-2.18-1.55.26-2.55,1.7-2.25,3.24.29,1.47,1.67,2.43,3.14,2.18,1.55-.26,2.55-1.71,2.25-3.24Z"/>
        <path class="cls-1" d="M49.23,239.78c-.28-1.62-1.78-2.66-3.39-2.34-1.55.31-2.54,1.74-2.28,3.29.27,1.62,1.78,2.66,3.4,2.34,1.55-.31,2.54-1.74,2.28-3.29Z"/>
        <path class="cls-1" d="M41.94,285.07c-.71-.27-1.52-.87-2.12-.71-.53.14-1.27,1.31-1.11,1.72.23.6,1.21,1.29,1.81,1.24.57-.05,1.06-1,1.58-1.56-.05-.23-.11-.46-.16-.69Z"/>
        <path class="cls-1" d="M36.72,256.78c-.38-1.2-1.16-1.85-2.43-1.61-1.26.24-1.84,1.09-1.68,2.36.16,1.22,1.31,1.99,2.5,1.69,1.26-.32,1.73-1.19,1.61-2.45Z"/>
        <path class="cls-1" d="M39.12,271.14c-.23-.73-1.06-1.28-1.62-1.91-.28.04-.56.09-.83.13-.35.77-1.07,1.62-.93,2.28.13.6,1.17,1.36,1.86,1.42,1.1.1,1.87-.83,1.53-1.93Z"/>
        <path class="cls-1" d="M33.57,109.24c.17,1.22,1.33,1.98,2.52,1.67,1.25-.33,1.72-1.21,1.58-2.47-.39-1.19-1.17-1.83-2.45-1.58-1.26.25-1.83,1.11-1.65,2.38Z"/>
        <path class="cls-1" d="M24.01,202.28c1.24-.24,2.18-1.58,1.85-2.8-.35-1.33-1.3-1.97-2.66-1.84-1.25.12-2.18,1.48-1.96,2.73.21,1.25,1.53,2.15,2.77,1.91Z"/>
        <path class="cls-1" d="M24.76,140.73c.26,1.2,1.54,2.03,2.74,1.78,1.2-.26,2.03-1.54,1.78-2.74-.26-1.2-1.54-2.03-2.73-1.78-1.2.26-2.03,1.54-1.78,2.73Z"/>
        <path class="cls-1" d="M23.08,185.34c-.26-1.2-1.54-2.03-2.73-1.78-1.2.26-2.03,1.54-1.78,2.74.26,1.2,1.54,2.03,2.73,1.78,1.2-.26,2.03-1.54,1.78-2.73Z"/>
        <path class="cls-1" d="M30.11,81.35c.34-.42.89-.81.96-1.26.04-.31-.6-.72-1.17-1.34-.42.74-.91,1.21-.85,1.58.07.39.68.68,1.06,1.02Z"/>
        <path class="cls-1" d="M3.66,172.79c-.5.14-.79.97-1.18,1.49.57.39,1.13,1.06,1.71,1.08.43.01.88-.84,1.68-1.68-1.06-.46-1.73-1.03-2.21-.89Z"/>
        <path class="cls-1" d="M33.02,95.98c.64-.07,1.19-.99,1.78-1.53-.05-.24-.1-.47-.15-.71-.69-.34-1.53-1.09-2.03-.91-.64.23-1.33,1.21-1.36,1.89-.01.44,1.19,1.32,1.76,1.26Z"/>
        <path class="cls-1" d="M35.93,123.51c.27,1.4,1.5,2.23,2.9,1.95,1.4-.27,2.23-1.5,1.95-2.9-.27-1.4-1.5-2.23-2.9-1.95-1.4.27-2.23,1.5-1.95,2.9Z"/>
        <path class="cls-1" d="M22.31,126.15c.38.77,1.27,1.3,1.93,1.93.25-.05.51-.1.76-.15.39-.83,1.1-1.66,1.09-2.49,0-1.15-1-1.73-2.18-1.64-1.07.08-2.08,1.41-1.61,2.34Z"/>
        <path class="cls-1" d="M54.33,268.21c-.2-1.42-1.39-2.32-2.79-2.12-1.42.2-2.32,1.39-2.12,2.79.2,1.42,1.39,2.32,2.79,2.12,1.42-.2,2.32-1.39,2.12-2.79Z"/>
        <path class="cls-1" d="M9.97,129.71c.29.03.97-.87.92-1.27-.07-.48-.73-.88-1.43-1.62-.46.91-1.02,1.53-.89,1.88.19.48.88.97,1.4,1.02Z"/>
        <path class="cls-1" d="M12.85,144.54c.57-.05,1.06-1,1.58-1.56-.05-.23-.11-.46-.16-.69-.71-.27-1.52-.87-2.12-.71-.53.14-1.27,1.31-1.11,1.72.23.6,1.21,1.29,1.81,1.24Z"/>
        <path class="cls-1" d="M1.02,158.78c-.48.18-.97.88-1.02,1.4-.03.29.87.97,1.27.92.48-.07.88-.73,1.62-1.43-.91-.46-1.53-1.03-1.88-.89Z"/>
        <path class="cls-1" d="M17.67,169.31c-1.26.22-1.85,1.07-1.7,2.34.15,1.22,1.29,2.01,2.48,1.72,1.26-.3,1.74-1.17,1.63-2.42-.36-1.21-1.14-1.87-2.41-1.64Z"/>
        <path class="cls-1" d="M21.8,113.78c.55-1.13,1.19-1.85,1.05-2.35-.15-.53-1.1-1.24-1.59-1.17-.49.07-1.19,1.03-1.17,1.59.02.52.85,1.01,1.7,1.93Z"/>
        <path class="cls-1" d="M13.49,157.57c.28.68,1.45,1.48,2.09,1.39.72-.11,1.29-1.17,1.92-1.82-.06-.26-.12-.51-.18-.76-.79-.35-1.6-1.02-2.38-.99-1.17.05-1.91,1.12-1.46,2.19Z"/>
        <path class="cls-1" d="M18.83,98.22c.29-.45.8-.9.81-1.36,0-.31-.68-.64-1.32-1.2-.33.78-.76,1.31-.65,1.67.12.38.75.6,1.16.89Z"/>
        <path class="cls-1" d="M76.36,308.55c-.2-1.18-1.05-1.8-2.22-1.65-1.27.15-1.93,1.03-1.77,2.29.16,1.28,1.07,1.8,2.32,1.77,1.21-.36,1.89-1.13,1.67-2.4Z"/>
        <path class="cls-1" d="M123.16,314.1c-.31-1.53-1.91-2.63-3.46-2.37-1.6.27-2.77,1.97-2.44,3.56.31,1.53,1.91,2.63,3.46,2.37,1.6-.27,2.77-1.97,2.44-3.56Z"/>
        <path class="cls-1" d="M137.68,311.3c-.35-1.77-2.2-3.02-3.97-2.67-1.77.35-3.02,2.2-2.67,3.97.35,1.77,2.2,3.02,3.97,2.67,1.77-.35,3.02-2.2,2.67-3.97Z"/>
        <path class="cls-1" d="M127.39,342.88c-.18-.59-1.28-1.25-1.98-1.26-1.13-.01-1.78,1-1.36,2.05.29.71,1.17,1.18,1.78,1.76.27-.06.55-.13.82-.19.28-.8.93-1.71.73-2.36Z"/>
        <path class="cls-1" d="M128.34,356.3c-.47.2-.72.92-1.06,1.42.52.31,1.05.86,1.56.84.37-.01.72-.78,1.31-1.48-.83-.39-1.47-.93-1.81-.78Z"/>
        <path class="cls-1" d="M125.42,328.8c-.22-1.4-1.48-2.28-2.86-2.01-1.32.25-2.15,1.44-1.94,2.76.22,1.4,1.48,2.28,2.86,2.01,1.32-.25,2.15-1.44,1.94-2.76Z"/>
        <path class="cls-1" d="M110.57,331.55c-.39-1.09-1.15-1.8-2.42-1.56-1.18.22-1.78,1.08-1.62,2.25.18,1.26,1.05,1.92,2.31,1.74,1.28-.19,1.78-1.1,1.73-2.43Z"/>
        <path class="cls-1" d="M110.96,344.11c-.51,1.04-1.11,1.7-.99,2.17.13.5.93.84,1.44,1.24.41-.55,1.11-1.09,1.15-1.67.03-.43-.8-.91-1.6-1.75Z"/>
        <path class="cls-1" d="M118.08,303.95c1.93-.35,3.14-2.09,2.8-4.01-.35-1.93-2.09-3.14-4.01-2.8-1.93.35-3.14,2.09-2.79,4.01.35,1.93,2.09,3.14,4.01,2.8Z"/>
        <path class="cls-1" d="M142.45,353.34c-.53.15-1.25,1.09-1.18,1.58.07.49,1.03,1.19,1.58,1.18.52-.01,1.02-.84,1.94-1.7-1.13-.55-1.84-1.2-2.35-1.06Z"/>
        <path class="cls-1" d="M139.9,325.94c-.29-1.58-1.7-2.54-3.27-2.23-1.57.31-2.51,1.74-2.18,3.3.31,1.5,1.67,2.42,3.17,2.17,1.58-.27,2.57-1.67,2.28-3.24Z"/>
        <path class="cls-1" d="M156.46,337.52c-.19-1.4-1.43-2.32-2.81-2.08-1.33.22-2.19,1.39-2.01,2.71.19,1.4,1.43,2.32,2.81,2.08,1.33-.22,2.19-1.39,2.01-2.71Z"/>
        <path class="cls-1" d="M156.5,350.28c-1.12-.04-1.81.94-1.42,2,.26.72,1.13,1.22,1.72,1.82.28-.06.55-.11.83-.17.3-.79.98-1.67.8-2.33-.16-.6-1.24-1.29-1.93-1.32Z"/>
        <path class="cls-1" d="M154.32,323.05c-.35-1.62-1.98-2.7-3.61-2.38-1.63.33-2.73,1.94-2.43,3.58.31,1.7,2.03,2.83,3.71,2.44,1.62-.37,2.67-2.02,2.33-3.65Z"/>
        <path class="cls-1" d="M149.03,312.81c1.99-.28,3.41-2.27,3.04-4.26-.35-1.92-2.27-3.25-4.2-2.92-1.92.33-3.27,2.23-2.97,4.16.3,1.92,2.18,3.3,4.13,3.02Z"/>
        <path class="cls-1" d="M141.97,340.07c-.33-1.24-1.18-1.78-2.45-1.59-1.23.19-1.96,1.29-1.71,2.51.24,1.22,1.34,1.93,2.55,1.66,1.21-.26,1.92-1.39,1.6-2.59Z"/>
        <path class="cls-1" d="M56.85,282.55c-.31-1.19-1.13-1.85-2.46-1.72-1.27.12-2.15,1.32-1.88,2.56.28,1.3,1.14,1.94,2.46,1.82,1.27-.12,2.11-1.31,1.88-2.66Z"/>
        <path class="cls-1" d="M108.3,316.96c-.29-1.37-1.74-2.32-3.11-2.03-1.37.29-2.32,1.74-2.03,3.11.29,1.37,1.74,2.32,3.11,2.03,1.37-.29,2.32-1.74,2.03-3.11Z"/>
        <path class="cls-1" d="M74,294c-.25-1.41-1.46-2.26-2.86-2.01-1.41.25-2.26,1.46-2.01,2.86.25,1.41,1.46,2.26,2.86,2.01,1.41-.25,2.26-1.46,2.01-2.86Z"/>
        <path class="cls-1" d="M71.56,279.79c-.28-1.58-1.7-2.54-3.27-2.24-1.5.29-2.45,1.63-2.22,3.13.24,1.58,1.63,2.6,3.2,2.34,1.58-.26,2.57-1.66,2.29-3.23Z"/>
        <path class="cls-1" d="M69.08,265.29c-.3-1.72-1.9-2.85-3.62-2.53-1.65.3-2.76,1.83-2.52,3.48.25,1.74,1.83,2.91,3.55,2.63,1.73-.27,2.88-1.87,2.58-3.58Z"/>
        <path class="cls-1" d="M43.23,62.67c-.77-.35-1.29-.79-1.65-.69-.38.11-.62.74-.91,1.14.45.3.88.82,1.34.84.31.02.66-.66,1.23-1.29Z"/>
        <path class="cls-1" d="M62.89,324.78c-.3.4-.79.79-.83,1.22-.03.28.59.63,1.14,1.16.35-.69.79-1.15.71-1.48-.08-.36-.66-.6-1.02-.9Z"/>
        <path class="cls-1" d="M106.02,302.81c-.29-1.63-1.9-2.76-3.54-2.49-1.64.27-2.79,1.86-2.54,3.5.26,1.71,1.94,2.89,3.64,2.56,1.63-.32,2.74-1.93,2.44-3.57Z"/>
        <path class="cls-1" d="M78.9,322.4c-.69-.32-1.46-.97-2.06-.85-.54.11-1.36,1.22-1.23,1.63.19.61,1.12,1.37,1.72,1.37.57,0,1.12-.93,1.68-1.45-.04-.23-.07-.46-.11-.7Z"/>
        <path class="cls-1" d="M59.97,310.27c-.36.59-1.01,1.18-1,1.76.01.43.88.84,1.76,1.6.41-1.08.95-1.79.78-2.25-.17-.49-1-.75-1.55-1.1Z"/>
        <path class="cls-1" d="M59.65,297.24c-.04-.26-.09-.51-.13-.77-.77-.4-1.53-1.12-2.31-1.13-1.18-.03-1.97,1-1.59,2.09.24.69,1.36,1.56,2.01,1.51.72-.06,1.35-1.09,2.03-1.7Z"/>
        <path class="cls-1" d="M96.15,334c-.71-.29-1.5-.91-2.1-.76-.53.13-1.3,1.28-1.15,1.69.22.6,1.18,1.32,1.78,1.28.57-.03,1.08-.98,1.62-1.52-.05-.23-.1-.46-.14-.69Z"/>
        <path class="cls-1" d="M96.13,348.89c.39.32.75.83,1.17.89.28.04.66-.56,1.22-1.08-.66-.39-1.1-.85-1.44-.79-.36.06-.63.63-.94.97Z"/>
        <path class="cls-1" d="M93.63,319.92c-.21-1.26-1.05-1.87-2.32-1.74-1.23.13-2.03,1.26-1.75,2.46.29,1.27,1.15,1.76,2.4,1.67,1.22-.35,1.89-1.12,1.68-2.39Z"/>
        <path class="cls-1" d="M83.96,280.8c1.77-.35,3.01-2.21,2.66-3.98-.35-1.77-2.21-3.01-3.98-2.66-1.77.35-3.01,2.21-2.66,3.98.35,1.77,2.21,3.01,3.98,2.66Z"/>
        <path class="cls-1" d="M79.63,336.16c-.32.69-.73,1.17-.64,1.51.09.35.68.57,1.05.85.28-.41.76-.82.78-1.25.02-.28-.62-.6-1.19-1.11Z"/>
        <path class="cls-1" d="M89.06,291.17c-.23-1.61-1.85-2.8-3.47-2.57-1.61.23-2.8,1.85-2.57,3.47.23,1.61,1.85,2.8,3.47,2.57,1.61-.23,2.8-1.85,2.57-3.47Z"/>
        <path class="cls-1" d="M91.42,305.56c-.29-1.37-1.74-2.32-3.11-2.03-1.37.29-2.32,1.74-2.03,3.11.29,1.37,1.74,2.32,3.11,2.03,1.37-.29,2.32-1.74,2.03-3.11Z"/>
        <path class="cls-1" d="M158.51,366.58c.44.31.87.83,1.33.86.31.02.67-.65,1.25-1.27-.77-.36-1.28-.81-1.64-.72-.38.1-.63.73-.93,1.12Z"/>
        <path class="cls-1" d="M195.97,33.17c.32,1.46,1.72,2.39,3.19,2.11,1.54-.29,2.51-1.76,2.18-3.29-.32-1.46-1.72-2.39-3.19-2.11-1.54.29-2.51,1.76-2.18,3.29Z"/>
        <path class="cls-1" d="M195.17,3.89c-1.06-.47-1.74-1.04-2.21-.9-.5.15-.8.97-1.18,1.49.57.39,1.13,1.07,1.71,1.08.43.01.88-.83,1.68-1.67Z"/>
        <path class="cls-1" d="M181.69,35.87c.3,1.55,1.74,2.54,3.29,2.28,1.63-.27,2.67-1.78,2.35-3.39-.3-1.55-1.74-2.54-3.29-2.28-1.63.27-2.67,1.78-2.35,3.39Z"/>
        <path class="cls-1" d="M183.88,50.37c.35,2.02,2.13,3.25,4.14,2.84,1.93-.39,3.1-2.14,2.72-4.07-.37-1.94-2.1-3.13-4.04-2.77-1.94.35-3.16,2.07-2.82,4Z"/>
        <path class="cls-1" d="M208.59,15.89c.24.69,1.35,1.57,2,1.51.72-.06,1.36-1.09,2.03-1.69-.04-.26-.08-.51-.13-.77-.77-.4-1.53-1.12-2.31-1.14-1.18-.03-1.97,1-1.6,2.09Z"/>
        <path class="cls-1" d="M198.14,47.74c.37,1.77,2.24,3,4,2.63,1.77-.37,3-2.24,2.63-4-.37-1.77-2.24-3-4-2.63-1.77.37-3,2.24-2.63,4Z"/>
        <path class="cls-1" d="M207.81,2.55c.29-.45.8-.9.81-1.36,0-.31-.68-.64-1.32-1.2-.33.78-.76,1.31-.65,1.67.12.38.75.6,1.16.89Z"/>
        <path class="cls-1" d="M152.89,41.4c.29,1.61,1.93,2.75,3.54,2.46,1.61-.29,2.75-1.93,2.46-3.54-.29-1.61-1.93-2.75-3.54-2.46-1.61.29-2.75,1.93-2.46,3.54Z"/>
        <path class="cls-1" d="M165.31,24.31c.15,1.25,1.51,2.16,2.75,1.92,1.24-.23,2.13-1.56,1.87-2.8-.26-1.24-1.62-2.16-2.83-1.81-1.32.37-1.96,1.32-1.8,2.69Z"/>
        <path class="cls-1" d="M179.51,21.65c.26,1.2,1.54,2.03,2.73,1.78,1.2-.26,2.03-1.54,1.78-2.74-.26-1.2-1.54-2.03-2.73-1.78-1.2.26-2.03,1.54-1.78,2.74Z"/>
        <path class="cls-1" d="M157.92,51.73c-1.88.41-3.19,2.36-2.86,4.25.34,1.95,2.37,3.34,4.32,2.97,1.95-.37,3.32-2.41,2.92-4.35-.4-1.95-2.46-3.3-4.39-2.87Z"/>
        <path class="cls-1" d="M165.2,11.32c.44.02,1.32-1.18,1.26-1.76-.07-.64-.99-1.19-1.53-1.78-.24.05-.47.1-.71.15-.34.69-1.09,1.53-.91,2.03.23.64,1.21,1.33,1.89,1.36Z"/>
        <path class="cls-1" d="M167.42,38.69c.34,1.53,1.96,2.61,3.5,2.32,1.6-.3,2.74-2.01,2.39-3.6-.34-1.53-1.96-2.61-3.5-2.32-1.6.3-2.74,2.01-2.39,3.6Z"/>
        <path class="cls-1" d="M179.29,8.4c.52-.03.99-.87,1.89-1.76-1.15-.51-1.88-1.14-2.38-.99-.53.16-1.21,1.13-1.12,1.62.09.49,1.07,1.16,1.62,1.12Z"/>
        <path class="cls-1" d="M172.58,48.94c-1.92.31-3.29,2.2-3.01,4.14.29,1.99,2.28,3.4,4.27,3.03,1.92-.36,3.24-2.28,2.91-4.21-.33-1.92-2.24-3.27-4.17-2.96Z"/>
        <path class="cls-1" d="M193.86,18.75c.15,1.22,1.3,2,2.5,1.7,1.26-.31,1.73-1.18,1.62-2.44-.37-1.2-1.15-1.85-2.43-1.62-1.26.23-1.85,1.08-1.69,2.36Z"/>
        <path class="cls-1" d="M124.17,259.73c2.73-.49,4.62-3.24,4.11-5.97-.51-2.73-3.28-4.6-6.01-4.06-2.66.53-4.49,3.19-4.04,5.87.46,2.73,3.2,4.65,5.94,4.16Z"/>
        <path class="cls-1" d="M115.23,289.96c2.15-.31,3.62-2.25,3.34-4.41-.28-2.16-2.2-3.64-4.37-3.38-2.16.26-3.67,2.16-3.43,4.33.24,2.22,2.24,3.78,4.46,3.46Z"/>
        <path class="cls-1" d="M98.15,278.51c2.18-.41,3.51-2.38,3.06-4.56-.43-2.1-2.35-3.39-4.46-2.99-2.18.41-3.51,2.38-3.06,4.56.43,2.1,2.35,3.39,4.46,2.99Z"/>
        <path class="cls-1" d="M129.71,287.53c2.28-.49,3.76-2.73,3.32-5.01-.45-2.35-2.78-3.89-5.11-3.39-2.28.49-3.76,2.73-3.32,5.01.45,2.35,2.78,3.89,5.11,3.39Z"/>
        <path class="cls-1" d="M112.73,276.2c2.32-.43,3.92-2.8,3.45-5.11-.46-2.32-2.85-3.89-5.15-3.4-2.25.48-3.78,2.74-3.39,5.01.41,2.32,2.76,3.94,5.08,3.5Z"/>
        <path class="cls-1" d="M100.83,292.27c1.92-.37,3.12-2.12,2.75-4.04-.37-1.92-2.12-3.12-4.04-2.75-1.92.37-3.12,2.12-2.75,4.04.37,1.92,2.12,3.12,4.04,2.75Z"/>
        <path class="cls-1" d="M107.24,248.13c2.78-.51,4.49-3.04,3.93-5.81-.55-2.69-3.04-4.34-5.74-3.81-2.7.53-4.37,3.01-3.86,5.71.51,2.71,2.97,4.4,5.67,3.91Z"/>
        <path class="cls-1" d="M44.61,79.46c.24-.06.47-.12.71-.18.3-.71,1-1.59.8-2.08-.26-.63-1.27-.94-1.96-1.38-.42.65-1.26,1.37-1.16,1.94.1.64,1.04,1.14,1.62,1.7Z"/>
        <path class="cls-1" d="M127,273.83c2.48-.5,4.19-3.04,3.72-5.52-.47-2.48-2.99-4.21-5.49-3.77-2.55.45-4.33,3.1-3.78,5.63.53,2.48,3.08,4.17,5.56,3.67Z"/>
        <path class="cls-1" d="M158.28,282.58c2.72-.49,4.43-2.94,3.94-5.64-.49-2.72-2.94-4.43-5.64-3.94-2.72.49-4.43,2.94-3.94,5.64.49,2.72,2.94,4.43,5.64,3.94Z"/>
        <path class="cls-1" d="M161.14,296.58c2.3-.49,3.88-2.88,3.42-5.18-.46-2.31-2.83-3.91-5.14-3.47-2.37.44-4.02,2.93-3.49,5.28.52,2.3,2.92,3.86,5.21,3.37Z"/>
        <path class="cls-1" d="M155.77,268.92c2.85-.6,4.76-3.48,4.2-6.32-.56-2.85-3.43-4.78-6.28-4.25-2.84.53-4.8,3.38-4.3,6.25.51,2.9,3.49,4.92,6.38,4.32Z"/>
        <path class="cls-1" d="M141.12,271.45c2.66-.47,4.53-3.13,4.11-5.82-.42-2.72-3.18-4.67-5.92-4.18-2.66.47-4.53,3.13-4.11,5.82.42,2.72,3.18,4.67,5.92,4.18Z"/>
        <path class="cls-1" d="M132.25,301.57c2.18-.38,3.54-2.36,3.11-4.52-.42-2.09-2.35-3.39-4.45-2.99-2.1.4-3.42,2.32-3.04,4.42.38,2.11,2.29,3.45,4.38,3.09Z"/>
        <path class="cls-1" d="M146.6,299.11c2.24-.47,3.66-2.63,3.19-4.89-.47-2.24-2.63-3.66-4.89-3.19-2.24.47-3.66,2.63-3.19,4.89.47,2.24,2.63,3.66,4.89,3.19Z"/>
        <path class="cls-1" d="M143.88,285.1c2.54-.53,4.13-2.99,3.56-5.53-.56-2.47-2.95-4.01-5.43-3.49-2.48.51-4.06,2.87-3.59,5.36.48,2.55,2.91,4.19,5.46,3.66Z"/>
        <path class="cls-1" d="M109.91,262.04c2.52-.42,4.25-2.9,3.79-5.42-.45-2.51-2.94-4.22-5.46-3.74-2.51.48-4.2,2.99-3.69,5.49.5,2.45,2.89,4.09,5.36,3.67Z"/>
        <path class="cls-1" d="M72.9,86.7c.35,1.62,1.98,2.7,3.61,2.38,1.63-.33,2.73-1.94,2.43-3.58-.3-1.63-1.91-2.75-3.55-2.48-1.7.29-2.86,1.99-2.49,3.68Z"/>
        <path class="cls-1" d="M70.67,72.39c.26,1.38,1.51,2.25,2.88,2.03,1.45-.23,2.37-1.54,2.1-2.98-.26-1.38-1.5-2.25-2.88-2.03-1.45.23-2.37,1.54-2.1,2.98Z"/>
        <path class="cls-1" d="M68.39,57.7c.07,1.07,1.38,2.09,2.33,1.63.78-.37,1.31-1.26,1.95-1.92-.05-.25-.09-.51-.14-.76-.83-.4-1.65-1.11-2.48-1.11-1.15,0-1.73.99-1.66,2.16Z"/>
        <path class="cls-1" d="M81.96,42.06c.57,0,1.13-.92,1.7-1.43-.03-.23-.07-.46-.1-.69-.69-.33-1.45-.99-2.06-.88-.53.1-1.37,1.21-1.25,1.62.19.61,1.1,1.39,1.71,1.38Z"/>
        <path class="cls-1" d="M82.22,55.01c.15,1.2,1.38,2.13,2.6,1.97,1.2-.15,2.13-1.38,1.98-2.6-.15-1.2-1.38-2.13-2.6-1.98-1.2.15-2.13,1.38-1.97,2.6Z"/>
        <path class="cls-1" d="M67.78,44.54c.52-.08.94-.81,1.75-1.59-1-.48-1.68-1.07-2.06-.92-.51.2-1.04.97-1.08,1.52-.02.32.95,1.05,1.39.98Z"/>
        <path class="cls-1" d="M93.52,24.78c.37-.02.71-.78,1.36-1.57-.96-.33-1.59-.78-2.06-.65-.39.11-.93,1.1-.79,1.35.25.45.98.89,1.49.87Z"/>
        <path class="cls-1" d="M84.46,69.6c.25,1.63,1.74,2.7,3.36,2.4,1.55-.28,2.57-1.7,2.33-3.26-.25-1.63-1.74-2.7-3.36-2.4-1.55.28-2.57,1.7-2.33,3.26Z"/>
        <path class="cls-1" d="M61.16,103.76c.24,1.74,1.82,2.92,3.53,2.66,1.73-.27,2.89-1.85,2.61-3.57-.28-1.66-1.78-2.79-3.44-2.58-1.74.22-2.94,1.78-2.7,3.5Z"/>
        <path class="cls-1" d="M49.79,120.7c.26,1.64,1.84,2.81,3.48,2.57,1.71-.24,2.91-1.91,2.59-3.61-.3-1.63-1.91-2.75-3.55-2.47-1.64.28-2.78,1.87-2.52,3.51Z"/>
        <path class="cls-1" d="M47.47,106.66c.3,1.35,1.76,2.31,3.11,2.06,1.42-.26,2.44-1.81,2.13-3.21-.3-1.35-1.75-2.31-3.11-2.06-1.42.26-2.44,1.81-2.13,3.21Z"/>
        <path class="cls-1" d="M94.13,38.01c.06.72,1.09,1.36,1.69,2.03.26-.04.51-.08.77-.13.4-.77,1.12-1.53,1.14-2.31.03-1.18-1-1.97-2.09-1.6-.69.24-1.57,1.35-1.51,2Z"/>
        <path class="cls-1" d="M45.09,91.86c.11,1.27,1.29,2.17,2.53,1.92,1.3-.26,1.96-1.11,1.85-2.44-.11-1.27-1.28-2.13-2.63-1.91-1.19.3-1.87,1.1-1.76,2.44Z"/>
        <path class="cls-1" d="M58.77,89.25c.18,1.35,1.57,2.42,2.96,2.28,1.42-.14,2.56-1.61,2.36-3.05-.18-1.35-1.57-2.42-2.96-2.28-1.42.14-2.56,1.61-2.36,3.05Z"/>
        <path class="cls-1" d="M56.63,75.02c.14,1.22,1.28,2.02,2.47,1.74,1.26-.3,1.75-1.16,1.67-2.19-.25-1.37-1.29-2.11-2.42-1.89-1.26.25-1.86,1.07-1.72,2.34Z"/>
        <path class="cls-1" d="M56.21,61.6c.52-.06.94-.92,1.79-1.85-1.17-.45-1.94-1.04-2.43-.86-.52.19-1.15,1.19-1.04,1.68.11.48,1.13,1.1,1.68,1.04Z"/>
        <path class="cls-1" d="M110.45,49.79c.34,1.46,1.76,2.36,3.23,2.06,1.47-.3,2.41-1.69,2.16-3.16-.27-1.55-1.73-2.54-3.26-2.22-1.53.31-2.48,1.8-2.12,3.33Z"/>
        <path class="cls-1" d="M124.36,46.93c.28,1.57,1.85,2.67,3.43,2.39,1.57-.28,2.67-1.85,2.39-3.43-.28-1.57-1.85-2.67-3.43-2.39-1.57.28-2.67,1.85-2.39,3.43Z"/>
        <path class="cls-1" d="M136.72,29.99c.39,1.31,1.34,1.95,2.7,1.78,1.25-.16,2.15-1.52,1.9-2.77-.24-1.24-1.58-2.12-2.81-1.85-1.24.27-2.14,1.64-1.79,2.84Z"/>
        <path class="cls-1" d="M96.16,52.44c.28,1.44,1.63,2.31,3.06,1.98,1.36-.31,2.19-1.59,1.92-2.96-.27-1.37-1.52-2.24-2.89-2.02-1.45.24-2.37,1.55-2.08,2.99Z"/>
        <path class="cls-1" d="M138.26,15.26c-.06-.24-.12-.47-.18-.71-.71-.3-1.59-1-2.08-.8-.63.26-.94,1.27-1.38,1.96.65.42,1.37,1.26,1.94,1.16.64-.1,1.14-1.04,1.71-1.62Z"/>
        <path class="cls-1" d="M150.29,14.57c.24-.04.47-.08.71-.12.36-.68,1.15-1.49.99-2-.21-.65-1.16-1.38-1.84-1.43-.43-.03-1.37,1.13-1.33,1.71.05.65.94,1.23,1.47,1.84Z"/>
        <path class="cls-1" d="M138.74,44.14c.29,1.61,1.93,2.75,3.54,2.46,1.61-.29,2.75-1.93,2.46-3.54-.29-1.61-1.93-2.75-3.54-2.46-1.61.29-2.75,1.93-2.46,3.54Z"/>
        <path class="cls-1" d="M143.91,54.5c-1.92.34-3.26,2.24-2.95,4.18.32,1.98,2.34,3.37,4.31,2.97,1.92-.39,3.22-2.33,2.85-4.25-.36-1.92-2.28-3.24-4.21-2.9Z"/>
        <path class="cls-1" d="M129.34,57.44c-1.92.4-3.09,2.16-2.73,4.09.38,2.01,2.19,3.22,4.2,2.8,1.92-.4,3.09-2.16,2.73-4.09-.38-2.01-2.19-3.22-4.2-2.8Z"/>
        <path class="cls-1" d="M108.33,35.28c.13,1.23,1.26,2.03,2.46,1.76,1.27-.28,1.76-1.14,1.69-2.18-.24-1.36-1.27-2.12-2.41-1.91-1.26.24-1.87,1.05-1.74,2.33Z"/>
        <path class="cls-1" d="M109.63,20.39c-1.08-.42-1.78-.97-2.24-.81-.49.16-.76.99-1.12,1.53.58.37,1.17,1.02,1.75,1.02.43,0,.85-.87,1.61-1.74Z"/>
        <path class="cls-1" d="M98.38,67.02c.34,1.75,1.91,2.82,3.66,2.49,1.75-.33,2.82-1.91,2.49-3.66-.34-1.75-1.91-2.82-3.66-2.49-1.75.34-2.82,1.91-2.49,3.66Z"/>
        <path class="cls-1" d="M122.25,32.66c.21,1.21,1.46,2.08,2.67,1.88,1.21-.21,2.08-1.46,1.88-2.67-.21-1.21-1.46-2.08-2.67-1.88-1.21.21-2.08,1.46-1.88,2.67Z"/>
        <path class="cls-1" d="M122.14,19.6c.43,0,1.23-1.15,1.16-1.69-.08-.61-.95-1.13-1.47-1.68-.23.04-.46.08-.7.12-.31.7-1.01,1.52-.83,2.06.19.57,1.2,1.21,1.84,1.19Z"/>
        <path class="cls-1" d="M112.55,64.13c.27,1.87,2.15,3.2,4.01,2.85,1.8-.34,3.04-2.14,2.73-3.94-.31-1.8-2.1-3.07-3.91-2.78-1.8.29-3.09,2.06-2.83,3.88Z"/>
        <path class="cls-1" d="M150.79,27.12c.22,1.29,1.47,2.18,2.76,1.96,1.29-.22,2.18-1.47,1.96-2.76-.22-1.29-1.47-2.18-2.76-1.96-1.29.22-2.18,1.47-1.96,2.76Z"/>
      </g>
    </g>
  </g>
</svg>